<svg width="4800" height="1600" viewBox="0 0 4800 1600" fill="none" xmlns="http://www.w3.org/2000/svg">
<path d="M154 320.028V1272.84H1044.35V320.028H154Z" fill="#FFE901"/>
<path fill-rule="evenodd" clip-rule="evenodd" d="M1257.94 797.638V320.028H1436.69C1439.29 320.028 1441.9 320.021 1444.5 320.014C1484.76 319.905 1524.52 319.797 1559.22 345.821C1643.3 408.861 1642.52 571.224 1552.48 628.67C1509.86 655.851 1455.63 653.768 1405.21 651.832C1392.52 651.344 1380.07 650.866 1368.11 650.866V797.638H1257.94ZM1789.68 797.638V320.028H1899.85V696.582H2112.32V797.638H1789.68ZM2292.19 797.638V320.028H2373.13L2404.23 321.267L2421.5 346.495L2458.95 404.241L2543.97 535.373L2591.22 607.556V320.028H2701.39V797.638H2617.07L2581.44 796.916L2567.14 777.186L2534.54 726.658L2453.26 600.338L2403.48 522.14H2402.36V797.638H2292.19ZM1368.11 548.607V421.084H1436.68C1438.84 421.084 1441.02 421.051 1443.2 421.018C1455.49 420.832 1468.06 420.642 1479.4 426.281C1518.37 445.674 1518.73 518.423 1482.78 541.281C1470.8 548.894 1457.44 548.767 1444.07 548.64C1442.36 548.623 1440.64 548.607 1438.93 548.607H1368.11Z" fill="#4FC3F7"/>
<path d="M540.715 447.551L541.839 448.754L540.715 447.551Z" fill="#ACD049"/>
<path d="M402.441 922.754L468.768 891.98L640.767 810.871C626.218 931.44 588.99 1048.81 574.441 1169.38H575.565L624.804 1037.04L705.525 819.292L742.855 719.44L758.806 674.927L595.8 745.185L523.853 775.983C550.768 705.773 579.351 636.068 608.009 566.653C623.827 528.336 645.062 487.937 655.382 447.551H573.317C565.853 447.551 548.625 444.122 542.413 448.79C536.246 453.422 533.549 473.633 531.407 481.236C523.028 511 513.553 540.426 505.389 570.262C484.333 647.209 460.831 723.674 438.028 800.044L415.545 875.836C410.993 891.078 404.622 906.898 402.441 922.754Z" fill="#DF0813"/>
<path d="M654.257 449.957L655.382 451.16L654.257 449.957ZM539.591 451.16L540.715 452.363L539.591 451.16ZM653.133 452.363L654.257 453.566L653.133 452.363ZM538.467 454.769L539.591 455.972L538.467 454.769ZM650.885 458.379L652.009 459.582L650.885 458.379ZM649.761 460.785L650.885 461.988L649.761 460.785ZM536.219 463.191L537.343 464.394L536.219 463.191ZM535.095 466.8L536.219 468.003L535.095 466.8ZM647.512 466.8L648.637 468.003L647.512 466.8ZM646.388 469.206L647.512 470.409L646.388 469.206ZM533.97 470.409L535.095 471.612L533.97 470.409ZM532.846 474.018L533.97 475.221L532.846 474.018ZM531.722 477.627L532.846 478.83L531.722 477.627ZM643.016 477.627L644.14 478.83L643.016 477.627ZM529.474 486.049L530.598 487.252L529.474 486.049ZM639.643 486.049L640.767 487.252L639.643 486.049ZM528.349 489.658L529.474 490.861L528.349 489.658ZM527.225 493.267L528.349 494.47L527.225 493.267ZM636.271 494.47L637.395 495.673L636.271 494.47ZM526.101 496.876L527.225 498.079L526.101 496.876ZM635.146 496.876L636.271 498.079L635.146 496.876ZM632.898 502.891L634.022 504.094L632.898 502.891ZM631.774 505.297L632.898 506.5L631.774 505.297ZM522.729 508.906L523.853 510.11L522.729 508.906ZM629.526 511.313L630.65 512.516L629.526 511.313ZM521.604 512.516L522.729 513.719L521.604 512.516ZM628.401 513.719L629.526 514.922L628.401 513.719ZM520.48 516.125L521.604 517.328L520.48 516.125ZM519.356 519.734L520.48 520.937L519.356 519.734ZM626.153 519.734L627.277 520.937L626.153 519.734ZM625.029 522.14L626.153 523.343L625.029 522.14ZM517.108 528.155L518.232 529.358L517.108 528.155ZM622.78 528.155L623.905 529.358L622.78 528.155ZM621.656 530.561L622.78 531.764L621.656 530.561ZM515.983 531.764L517.108 532.967L515.983 531.764ZM514.859 535.373L515.983 536.577L514.859 535.373ZM619.408 536.577L620.532 537.78L619.408 536.577ZM513.735 538.983L514.859 540.186L513.735 538.983ZM618.284 538.983L619.408 540.186L618.284 538.983ZM512.611 542.592L513.735 543.795L512.611 542.592ZM614.911 547.404L616.035 548.607L614.911 547.404ZM510.363 551.013L511.487 552.216L510.363 551.013ZM509.238 554.622L510.363 555.825L509.238 554.622ZM611.539 555.825L612.663 557.028L611.539 555.825ZM508.114 558.231L509.238 559.434L508.114 558.231ZM506.99 561.841L508.114 563.044L506.99 561.841ZM608.166 564.247L609.29 565.45L608.166 564.247ZM607.042 566.653L608.166 567.856L607.042 566.653ZM504.742 570.262L505.866 571.465L504.742 570.262ZM604.794 572.668L605.918 573.871L604.794 572.668ZM503.617 573.871L504.742 575.074L503.617 573.871ZM603.669 575.074L604.794 576.277L603.669 575.074ZM502.493 577.48L503.617 578.683L502.493 577.48ZM501.369 581.089L502.493 582.292L501.369 581.089ZM601.421 581.089L602.545 582.292L601.421 581.089ZM600.297 583.495L601.421 584.698L600.297 583.495ZM500.245 584.698L501.369 585.901L500.245 584.698ZM598.049 589.511L599.173 590.714L598.049 589.511ZM596.924 591.917L598.049 593.12L596.924 591.917ZM497.997 593.12L499.121 594.323L497.997 593.12ZM496.872 596.729L497.997 597.932L496.872 596.729ZM594.676 597.932L595.8 599.135L594.676 597.932ZM495.748 600.338L496.872 601.541L495.748 600.338ZM593.552 600.338L594.676 601.541L593.552 600.338ZM494.624 603.947L495.748 605.15L494.624 603.947ZM591.303 606.353L592.428 607.556L591.303 606.353ZM493.5 607.556L494.624 608.759L493.5 607.556ZM590.179 608.759L591.303 609.962L590.179 608.759ZM491.252 615.978L492.376 617.181L491.252 615.978ZM586.807 617.181L587.931 618.384L586.807 617.181ZM490.127 619.587L491.252 620.79L490.127 619.587ZM489.003 623.196L490.127 624.399L489.003 623.196ZM583.434 625.602L584.558 626.805L583.434 625.602ZM487.879 626.805L489.003 628.008L487.879 626.805ZM580.062 634.023L581.186 635.226L580.062 634.023ZM485.631 635.226L486.755 636.429L485.631 635.226ZM578.937 636.429L580.062 637.632L578.937 636.429ZM484.506 638.835L485.631 640.039L484.506 638.835ZM402.441 640.039V641.242H409.186L402.441 640.039Z" fill="#ACD049"/>
<path d="M333.869 729.064C361.507 716.685 388.876 698.374 420.43 701.598C436.033 703.198 447.496 711.355 462.025 715.83L480.012 656.881C441.836 639.87 407.633 635.503 367.594 649.663C358.969 652.719 340.157 657.158 335.024 665.772C332.287 670.367 333.869 679.306 333.869 684.551V729.064Z" fill="#047DAF"/>
<path d="M428.301 640.039V641.242H433.922L428.301 640.039ZM586.81 640.039V641.242H593.555L586.81 640.039Z" fill="#ACD049"/>
<path d="M547.465 717.034C571.737 709.551 590.917 700.119 617.164 702.801C626.802 703.788 636.273 706.242 645.268 710.056C650.344 712.209 656.493 717.13 662.131 716.179C670.741 714.724 679.905 708.949 687.987 705.484C711.583 695.379 735.419 682.097 759.935 674.927L743.072 719.44C752.189 714.88 760.207 708.095 770.052 705.195C805.812 694.657 834.019 712.847 864.483 729.064V685.754C864.483 679.98 865.783 672.016 863.805 666.554C859.455 654.547 836.743 648.111 826.261 645.308C803.536 639.22 778.056 637.187 755.438 644.887C734.057 652.153 721.226 667.613 696.981 665.098C668.108 662.103 642.648 644.911 613.791 640.905C604.06 639.545 588.219 638.054 579.182 643.058C573.678 646.114 571.45 657.17 569.14 662.896C561.877 680.918 554.422 698.88 547.465 717.034Z" fill="#047DAF"/>
<path d="M611.541 640.039V641.242H617.161L611.541 640.039ZM771.174 640.039V641.242H776.795L771.174 640.039ZM798.154 640.039V641.242H804.899L798.154 640.039ZM394.574 641.242V642.445H399.071L394.574 641.242ZM438.417 641.242V642.445H441.79L438.417 641.242ZM578.939 641.242V642.445H583.436L578.939 641.242ZM620.534 641.242V642.445H623.906L620.534 641.242ZM764.429 641.242V642.445H767.801L764.429 641.242ZM809.396 641.242V642.445H813.893L809.396 641.242ZM388.953 642.445V643.648H392.326L388.953 642.445ZM444.038 642.445V643.648H447.41L444.038 642.445ZM483.384 642.445L484.508 643.648L483.384 642.445Z" fill="#ACD049"/>
<path d="M576.688 642.445L577.812 643.648L576.688 642.445Z" fill="#4D6971"/>
<path d="M626.156 642.445V643.648H629.529L626.156 642.445ZM760.683 642.842L761.432 643.251L760.683 642.842ZM816.142 642.445V643.648H819.515L816.142 642.445ZM385.208 644.045L385.956 644.454L385.208 644.045ZM450.41 644.045L451.159 644.454L450.41 644.045ZM632.527 644.045L633.276 644.454L632.527 644.045ZM756.187 644.045L756.935 644.454L756.187 644.045ZM822.513 644.045L823.262 644.454L822.513 644.045ZM380.711 645.248L381.46 645.657L380.711 645.248ZM453.783 645.248L454.531 645.657L453.783 645.248Z" fill="#ACD049"/>
<path d="M575.566 644.851L576.691 646.054L575.566 644.851Z" fill="#4D6971"/>
<path d="M635.901 645.248L636.65 645.657L635.901 645.248ZM753.19 644.851L754.315 646.054L753.19 644.851ZM827.012 645.248L827.761 645.657L827.012 645.248ZM376.216 646.451L376.965 646.86L376.216 646.451ZM457.157 646.451L457.906 646.86L457.157 646.451ZM482.263 646.054L483.387 647.257L482.263 646.054ZM639.648 646.054L640.772 647.257L639.648 646.054ZM749.818 646.054L750.942 647.257L749.818 646.054ZM830.759 646.054L831.883 647.257L830.759 646.054ZM372.094 647.257L373.218 648.46L372.094 647.257ZM460.53 647.654L461.278 648.063L460.53 647.654Z" fill="#ACD049"/>
<path d="M574.441 647.257L575.566 648.46L574.441 647.257Z" fill="#4D6971"/>
<path d="M643.017 647.257L644.142 648.46L643.017 647.257ZM747.566 647.257L748.69 648.46L747.566 647.257ZM834.128 647.257L835.252 648.46L834.128 647.257ZM368.343 648.857L369.092 649.266L368.343 648.857ZM463.149 648.46L464.273 649.663L463.149 648.46ZM646.39 648.46L647.514 649.663L646.39 648.46ZM745.318 648.46L746.442 649.663L745.318 648.46ZM837.5 648.46L838.624 649.663L837.5 648.46ZM364.971 650.06L365.72 650.469L364.971 650.06ZM466.147 650.06L466.896 650.469L466.147 650.06ZM481.136 649.663L482.26 650.866L481.136 649.663ZM649.388 650.06L650.137 650.469L649.388 650.06ZM743.069 649.663L744.193 650.866L743.069 649.663ZM840.498 650.06L841.247 650.469L840.498 650.06ZM361.973 650.866L363.097 652.069L361.973 650.866ZM468.77 650.866L469.894 652.069L468.77 650.866Z" fill="#ACD049"/>
<path d="M573.316 650.866L574.441 652.069L573.316 650.866Z" fill="#4D6971"/>
<path d="M652.76 651.263L653.508 651.672L652.76 651.263ZM741.944 650.866L743.068 652.069L741.944 650.866ZM843.12 650.866L844.245 652.069L843.12 650.866ZM358.599 652.069L359.723 653.272L358.599 652.069ZM471.017 652.069L472.141 653.272L471.017 652.069ZM655.382 652.069L656.507 653.272L655.382 652.069ZM739.696 652.069L740.82 653.272L739.696 652.069ZM845.369 652.069L846.493 653.272L845.369 652.069ZM355.977 653.669L356.725 654.078L355.977 653.669ZM473.266 653.272L474.39 654.475L473.266 653.272Z" fill="#ACD049"/>
<path d="M572.191 653.272L573.316 654.475L572.191 653.272Z" fill="#4D6971"/>
<path d="M658.384 653.669L659.133 654.078L658.384 653.669ZM737.451 653.272L738.575 654.475L737.451 653.272ZM847.621 653.272L848.745 654.475L847.621 653.272ZM352.982 654.475L354.106 655.678L352.982 654.475ZM475.518 654.475L476.642 655.678L475.518 654.475ZM661.757 654.872L662.506 655.281L661.757 654.872ZM736.327 654.475L737.451 655.678L736.327 654.475ZM849.869 654.475L850.993 655.678L849.869 654.475ZM350.359 656.075L351.108 656.484L350.359 656.075ZM477.766 655.678L478.89 656.881L477.766 655.678Z" fill="#ACD049"/>
<path d="M571.07 655.678L572.194 656.881L571.07 655.678Z" fill="#4D6971"/>
<path d="M664.376 655.678L665.5 656.881L664.376 655.678ZM734.075 655.678L735.199 656.881L734.075 655.678ZM852.114 655.678L853.238 656.881L852.114 655.678ZM347.358 656.881L348.482 658.084L347.358 656.881ZM667.374 657.278L668.123 657.687L667.374 657.278ZM732.951 656.881L734.075 658.084L732.951 656.881ZM854.362 656.881L855.487 658.084L854.362 656.881ZM345.109 658.084L346.234 659.287L345.109 658.084Z" fill="#ACD049"/>
<path d="M478.891 658.084L480.015 659.287L478.891 658.084Z" fill="#4D6971"/>
<path d="M670.745 658.481L671.494 658.89L670.745 658.481ZM730.701 658.084L731.825 659.287L730.701 658.084ZM855.485 658.084L856.609 659.287L855.485 658.084ZM342.859 659.287L343.984 660.49L342.859 659.287Z" fill="#ACD049"/>
<path d="M569.949 659.287L571.073 660.49L569.949 659.287Z" fill="#4D6971"/>
<path d="M674.122 659.684L674.871 660.093L674.122 659.684ZM728.457 659.287L729.581 660.49L728.457 659.287ZM857.738 659.287L858.862 660.49L857.738 659.287ZM340.616 660.49L341.74 661.693L340.616 660.49ZM678.619 660.887L679.368 661.296L678.619 660.887ZM726.209 660.49L727.333 661.693L726.209 660.49ZM858.862 660.49L859.986 661.693L858.862 660.49ZM338.367 661.693L339.491 662.896L338.367 661.693Z" fill="#ACD049"/>
<path d="M477.762 661.693L478.886 662.897L477.762 661.693ZM568.82 661.693L569.944 662.897L568.82 661.693Z" fill="#4D6971"/>
<path d="M681.238 661.693V662.897H684.611L681.238 661.693ZM722.833 661.693L723.957 662.897L722.833 661.693ZM861.107 661.693L862.231 662.897L861.107 661.693ZM336.116 662.897L337.24 664.1L336.116 662.897ZM686.859 662.897V664.1H690.232L686.859 662.897ZM719.086 663.294L719.835 663.702L719.086 663.294ZM862.231 662.897L863.355 664.1L862.231 662.897ZM333.867 664.1L334.991 665.303L333.867 664.1Z" fill="#ACD049"/>
<path d="M567.699 664.1L568.823 665.303L567.699 664.1Z" fill="#4D6971"/>
<path d="M693.607 664.1V665.303H700.353L693.607 664.1ZM709.346 664.1V665.303H714.967L709.346 664.1ZM863.358 664.1L864.483 665.303L863.358 664.1ZM332.746 665.303V713.424L334.994 730.267C330.544 710.26 340.095 684.046 332.746 665.303Z" fill="#ACD049"/>
<path d="M476.637 665.303L477.761 666.506L476.637 665.303ZM566.571 667.709L567.696 668.912L566.571 667.709ZM475.887 669.718L476.263 670.512L475.887 669.718ZM565.447 670.115L566.571 671.318L565.447 670.115ZM474.763 673.327L475.139 674.121L474.763 673.327ZM564.323 672.521L565.447 673.724L564.323 672.521ZM756.558 674.927L757.682 676.13L756.558 674.927ZM758.806 674.927L759.93 676.13L758.806 674.927ZM563.199 676.13L564.323 677.333L563.199 676.13ZM754.309 676.13L755.433 677.333L754.309 676.13ZM473.265 677.333L474.389 678.536L473.265 677.333ZM750.937 677.333L752.061 678.536L750.937 677.333ZM757.682 677.333L758.806 678.536L757.682 677.333ZM562.075 678.536L563.199 679.739L562.075 678.536ZM748.688 678.536L749.813 679.739L748.688 678.536ZM745.316 679.739L746.44 680.942L745.316 679.739ZM472.14 680.942L473.265 682.145L472.14 680.942ZM560.951 680.942L562.075 682.145L560.951 680.942ZM743.068 680.942L744.192 682.145L743.068 680.942ZM756.558 680.942L757.682 682.145L756.558 680.942ZM739.695 682.145L740.819 683.348L739.695 682.145ZM737.447 683.348L738.571 684.551L737.447 683.348ZM755.433 683.348L756.558 684.551L755.433 683.348ZM471.016 684.551L472.14 685.754L471.016 684.551ZM559.826 684.551L560.951 685.754L559.826 684.551ZM734.074 684.551L735.198 685.754L734.074 684.551ZM731.826 685.754L732.95 686.957L731.826 685.754ZM558.702 686.957L559.826 688.16L558.702 686.957ZM728.453 686.957L729.577 688.16L728.453 686.957ZM754.309 686.957L755.433 688.16L754.309 686.957ZM470.266 688.966L470.642 689.761L470.266 688.966ZM726.205 688.16L727.329 689.363L726.205 688.16ZM557.578 689.363L558.702 690.567L557.578 689.363ZM722.832 689.363L723.956 690.567L722.832 689.363ZM753.185 689.363L754.309 690.567L753.185 689.363ZM720.584 690.567L721.708 691.77L720.584 690.567ZM469.142 692.576L469.518 693.37L469.142 692.576ZM717.961 692.167L718.71 692.576L717.961 692.167ZM556.454 692.973L557.578 694.176L556.454 692.973ZM714.963 692.973L716.087 694.176L714.963 692.973ZM752.061 692.973L753.185 694.176L752.061 692.973ZM712.34 694.573L713.089 694.982L712.34 694.573ZM555.33 695.379L556.454 696.582L555.33 695.379ZM709.342 695.379L710.466 696.582L709.342 695.379ZM750.937 695.379L752.061 696.582L750.937 695.379ZM467.644 696.582L468.768 697.785L467.644 696.582ZM707.094 696.582L708.218 697.785L707.094 696.582ZM554.205 697.785L555.33 698.988L554.205 697.785ZM703.721 697.785L704.845 698.988L703.721 697.785ZM701.473 698.988L702.597 700.191L701.473 698.988ZM749.813 698.988L750.937 700.191L749.813 698.988ZM466.52 700.191L467.644 701.394L466.52 700.191ZM698.1 700.191L699.225 701.394L698.1 700.191Z" fill="#4D6971"/>
<path d="M408.066 701.394V702.597H423.805L408.066 701.394Z" fill="#ACD049"/>
<path d="M553.086 701.394L554.21 702.597L553.086 701.394ZM695.857 701.394L696.981 702.597L695.857 701.394ZM748.693 701.394L749.817 702.597L748.693 701.394Z" fill="#4D6971"/>
<path d="M397.945 702.597V703.8H402.442L397.945 702.597ZM428.298 702.597V703.8H431.671L428.298 702.597ZM589.056 702.597V703.8H594.677L589.056 702.597Z" fill="#ACD049"/>
<path d="M523.855 775.983L659.881 718.237C638.035 698.868 599.079 699.902 573.319 706.964C565.311 709.166 554.322 712.161 548.023 718.2C543.68 722.351 541.821 730.676 539.594 736.282C534.356 749.468 528.171 762.412 523.855 775.983Z" fill="#FFE901"/>
<path d="M614.914 702.597V703.8H620.535L614.914 702.597Z" fill="#ACD049"/>
<path d="M692.484 702.597L693.609 703.8L692.484 702.597Z" fill="#4D6971"/>
<path d="M777.918 702.597V703.8H782.414L777.918 702.597ZM799.277 702.597V703.8H804.898L799.277 702.597ZM393.074 704.197L393.823 704.606L393.074 704.197ZM434.669 704.197L435.418 704.606L434.669 704.197Z" fill="#ACD049"/>
<path d="M465.395 703.8L466.519 705.003L465.395 703.8ZM551.956 703.8L553.08 705.003L551.956 703.8Z" fill="#4D6971"/>
<path d="M581.188 703.8V705.003H584.56L581.188 703.8ZM625.03 703.8V705.003H628.403L625.03 703.8Z" fill="#ACD049"/>
<path d="M690.234 703.8L691.359 705.003L690.234 703.8Z" fill="#4D6971"/>
<path d="M773.05 704.197L773.799 704.606L773.05 704.197ZM809.398 703.8V705.003H812.771L809.398 703.8ZM387.457 705.4L388.206 705.809L387.457 705.4ZM439.169 705.4L439.918 705.809L439.169 705.4ZM575.569 705.003V706.206H578.942L575.569 705.003ZM631.404 705.4L632.153 705.809L631.404 705.4Z" fill="#ACD049"/>
<path d="M686.863 705.003L687.987 706.206L686.863 705.003ZM747.569 705.003L748.693 706.206L747.569 705.003Z" fill="#4D6971"/>
<path d="M768.554 705.4L769.303 705.809L768.554 705.4ZM815.02 705.003V706.206H818.392L815.02 705.003ZM382.961 706.603L383.71 707.012L382.961 706.603ZM442.542 706.603L443.291 707.012L442.542 706.603Z" fill="#ACD049"/>
<path d="M550.836 706.206L551.96 707.409L550.836 706.206Z" fill="#4D6971"/>
<path d="M572.941 706.603L573.69 707.012L572.941 706.603ZM635.895 706.603L636.644 707.012L635.895 706.603Z" fill="#ACD049"/>
<path d="M684.613 706.206L685.737 707.409L684.613 706.206Z" fill="#4D6971"/>
<path d="M765.179 706.603L765.928 707.012L765.179 706.603ZM819.514 706.206V707.409H822.887L819.514 706.206ZM379.586 707.806L380.335 708.215L379.586 707.806ZM445.163 707.409L446.287 708.612L445.163 707.409Z" fill="#ACD049"/>
<path d="M464.273 707.409L465.398 708.612L464.273 707.409Z" fill="#4D6971"/>
<path d="M568.449 707.806L569.198 708.215L568.449 707.806ZM639.272 707.806L640.021 708.215L639.272 707.806Z" fill="#ACD049"/>
<path d="M681.238 707.409L682.362 708.612L681.238 707.409ZM746.441 707.409L747.565 708.612L746.441 707.409Z" fill="#4D6971"/>
<path d="M762.182 707.409L763.306 708.612L762.182 707.409ZM824.761 707.806L825.51 708.215L824.761 707.806ZM375.09 709.009L375.839 709.418L375.09 709.009ZM447.412 708.612L448.536 709.815L447.412 708.612Z" fill="#ACD049"/>
<path d="M550.082 709.418L550.457 710.212L550.082 709.418Z" fill="#4D6971"/>
<path d="M565.449 708.612L566.573 709.815L565.449 708.612ZM642.643 709.009L643.392 709.418L642.643 709.009Z" fill="#ACD049"/>
<path d="M678.988 708.612L680.112 709.815L678.988 708.612Z" fill="#4D6971"/>
<path d="M759.931 708.612L761.055 709.815L759.931 708.612ZM828.131 709.009L828.88 709.418L828.131 709.009ZM371.715 710.212L372.464 710.621L371.715 710.212ZM449.658 709.815L450.782 711.018L449.658 709.815ZM562.075 709.815L563.2 711.018L562.075 709.815ZM645.265 709.815L646.389 711.018L645.265 709.815Z" fill="#ACD049"/>
<path d="M675.621 709.815L676.745 711.018L675.621 709.815Z" fill="#4D6971"/>
<path d="M757.681 709.815L758.805 711.018L757.681 709.815ZM831.502 710.212L832.251 710.621L831.502 710.212ZM368.715 711.018L369.839 712.221L368.715 711.018ZM451.904 711.018L453.028 712.221L451.904 711.018Z" fill="#ACD049"/>
<path d="M463.523 711.824L463.899 712.618L463.523 711.824Z" fill="#4D6971"/>
<path d="M559.828 711.018L560.952 712.221L559.828 711.018ZM648.264 711.416L649.013 711.824L648.264 711.416Z" fill="#ACD049"/>
<path d="M673.371 711.018L674.495 712.221L673.371 711.018ZM745.319 711.018L746.443 712.221L745.319 711.018Z" fill="#4D6971"/>
<path d="M755.434 711.018L756.558 712.221L755.434 711.018ZM834.126 711.018L835.25 712.221L834.126 711.018ZM365.344 712.221L366.468 713.425L365.344 712.221ZM454.154 712.221L455.278 713.425L454.154 712.221Z" fill="#ACD049"/>
<path d="M548.586 712.221L549.71 713.424L548.586 712.221Z" fill="#4D6971"/>
<path d="M556.453 712.221L557.577 713.424L556.453 712.221ZM650.884 712.221L652.008 713.424L650.884 712.221Z" fill="#ACD049"/>
<path d="M669.996 712.221L671.12 713.424L669.996 712.221Z" fill="#4D6971"/>
<path d="M753.191 712.221L754.315 713.424L753.191 712.221ZM837.13 712.619L837.879 713.027L837.13 712.619ZM362.727 713.822L363.475 714.23L362.727 713.822ZM456.408 713.424L457.532 714.628L456.408 713.424ZM554.211 713.424L555.335 714.628L554.211 713.424ZM653.139 713.424L654.263 714.628L653.139 713.424Z" fill="#ACD049"/>
<path d="M667.75 713.424L668.874 714.627L667.75 713.424ZM744.194 713.424L745.318 714.627L744.194 713.424Z" fill="#4D6971"/>
<path d="M839.747 713.424L840.871 714.627L839.747 713.424ZM359.723 714.627L360.847 715.831L359.723 714.627ZM458.65 714.627L459.775 715.831L458.65 714.627Z" fill="#ACD049"/>
<path d="M462.398 715.433L462.774 716.228L462.398 715.433ZM547.462 714.627L548.586 715.83L547.462 714.627Z" fill="#4D6971"/>
<path d="M551.961 714.627L553.085 715.83L551.961 714.627ZM655.385 714.627L656.51 715.83L655.385 714.627Z" fill="#ACD049"/>
<path d="M665.129 715.025L665.878 715.433L665.129 715.025Z" fill="#4D6971"/>
<path d="M749.815 714.627L750.939 715.83L749.815 714.627ZM841.998 714.627L843.122 715.83L841.998 714.627ZM357.477 715.83L358.601 717.034L357.477 715.83ZM460.901 715.83L462.025 717.034L460.901 715.83ZM549.711 715.83L550.835 717.034L549.711 715.83ZM657.632 715.83L658.756 717.034L657.632 715.83Z" fill="#ACD049"/>
<path d="M662.129 715.831L663.253 717.034L662.129 715.831Z" fill="#4D6971"/>
<path d="M747.568 715.831L748.692 717.034L747.568 715.831ZM844.248 715.831L845.372 717.034L844.248 715.831ZM354.855 717.431L355.604 717.84L354.855 717.431Z" fill="#ACD049"/>
<path d="M546.34 717.034L547.464 718.237L546.34 717.034Z" fill="#4D6971"/>
<path d="M547.465 717.034L548.589 718.237L547.465 717.034Z" fill="#ACD049"/>
<path d="M743.07 717.034L744.194 718.237L743.07 717.034Z" fill="#4D6971"/>
<path d="M846.492 717.034L847.617 718.237L846.492 717.034ZM351.854 718.237L352.978 719.44L351.854 718.237ZM656.506 718.237L657.63 719.44L656.506 718.237ZM744.192 718.237L745.316 719.44L744.192 718.237ZM848.741 718.237L849.865 719.44L848.741 718.237ZM349.605 719.44L350.73 720.643L349.605 719.44Z" fill="#ACD049"/>
<path d="M741.945 719.44L743.069 720.643L741.945 719.44Z" fill="#4D6971"/>
<path d="M849.866 719.44L850.99 720.643L849.866 719.44ZM347.358 720.643L348.482 721.846L347.358 720.643ZM545.214 720.643L546.338 721.846L545.214 720.643ZM650.886 720.643L652.011 721.846L650.886 720.643ZM852.114 720.643L853.239 721.846L852.114 720.643ZM345.11 721.846L346.234 723.049L345.11 721.846ZM854.363 721.846L855.487 723.049L854.363 721.846ZM342.861 723.049L343.986 724.252L342.861 723.049ZM459.776 723.049L460.9 724.252L459.776 723.049ZM544.089 723.049L545.214 724.252L544.089 723.049ZM645.266 723.049L646.39 724.252L645.266 723.049ZM740.821 723.049L741.945 724.252L740.821 723.049ZM855.487 723.049L856.611 724.252L855.487 723.049ZM857.735 724.252L858.859 725.455L857.735 724.252ZM339.489 725.455L340.613 726.658L339.489 725.455ZM639.645 725.455L640.769 726.658L639.645 725.455ZM858.859 725.455L859.984 726.658L858.859 725.455ZM337.241 726.658L338.365 727.861L337.241 726.658ZM458.652 726.658L459.776 727.861L458.652 726.658ZM334.992 727.861L336.116 729.064L334.992 727.861ZM634.024 727.861L635.148 729.064L634.024 727.861ZM862.232 727.861L863.356 729.064L862.232 727.861ZM541.841 729.064L542.965 730.267L541.841 729.064ZM631.775 729.064L632.9 730.267L631.775 729.064ZM738.572 729.064L739.697 730.267L738.572 729.064ZM863.356 729.064L864.48 730.267L863.356 729.064ZM457.528 730.267L458.652 731.47L457.528 730.267ZM628.403 730.267L629.527 731.47L628.403 730.267ZM540.717 731.47L541.841 732.673L540.717 731.47ZM626.154 731.47L627.279 732.673L626.154 731.47ZM622.782 732.673L623.906 733.876L622.782 732.673ZM456.403 733.876L457.528 735.079L456.403 733.876ZM620.534 733.876L621.658 735.079L620.534 733.876ZM736.324 735.079L737.448 736.282L736.324 735.079ZM614.913 736.282L616.037 737.485L614.913 736.282ZM538.469 737.485L539.593 738.688L538.469 737.485ZM609.292 738.688L610.416 739.891L609.292 738.688ZM537.344 739.891L538.469 741.095L537.344 739.891ZM603.671 741.095L604.795 742.298L603.671 741.095ZM734.076 741.095L735.2 742.298L734.076 741.095ZM454.155 742.298L455.279 743.501L454.155 742.298ZM598.05 743.501L599.174 744.704L598.05 743.501ZM453.031 745.907L454.155 747.11L453.031 745.907ZM535.096 745.907L536.22 747.11L535.096 745.907ZM592.429 745.907L593.553 747.11L592.429 745.907ZM731.827 747.11L732.951 748.313L731.827 747.11ZM533.972 748.313L535.096 749.516L533.972 748.313ZM586.808 748.313L587.932 749.516L586.808 748.313ZM451.907 749.516L453.031 750.719L451.907 749.516ZM584.56 749.516L585.684 750.719L584.56 749.516ZM581.187 750.719L582.312 751.922L581.187 750.719ZM578.939 751.922L580.063 753.125L578.939 751.922ZM450.783 753.125L451.907 754.328L450.783 753.125ZM575.566 753.125L576.691 754.328L575.566 753.125ZM729.579 753.125L730.703 754.328L729.579 753.125ZM573.318 754.328L574.442 755.531L573.318 754.328ZM449.658 756.734L450.783 757.937L449.658 756.734ZM530.599 756.734L531.723 757.937L530.599 756.734ZM567.697 756.734L568.821 757.937L567.697 756.734ZM562.076 759.14L563.2 760.343L562.076 759.14ZM727.331 759.14L728.455 760.343L727.331 759.14ZM556.455 761.546L557.58 762.749L556.455 761.546ZM550.835 763.952L551.959 765.155L550.835 763.952ZM447.41 765.155L448.534 766.359L447.41 765.155ZM527.227 765.155L528.351 766.359L527.227 765.155ZM725.082 765.155L726.206 766.359L725.082 765.155ZM545.214 766.359L546.338 767.562L545.214 766.359ZM446.286 768.765L447.41 769.968L446.286 768.765ZM539.593 768.765L540.717 769.968L539.593 768.765ZM533.972 771.171L535.096 772.374L533.972 771.171ZM722.834 771.171L723.958 772.374L722.834 771.171ZM445.162 772.374L446.286 773.577L445.162 772.374ZM531.723 772.374L532.848 773.577L531.723 772.374ZM523.854 773.577L524.978 774.78L523.854 773.577ZM528.351 773.577L529.475 774.78L528.351 773.577ZM526.103 774.78L527.227 775.983L526.103 774.78ZM444.038 775.983L445.162 777.186L444.038 775.983ZM720.586 777.186L721.71 778.389L720.586 777.186ZM442.913 779.592L444.038 780.795L442.913 779.592ZM718.337 783.201L719.461 784.404L718.337 783.201ZM440.665 788.013L441.789 789.216L440.665 788.013ZM409.188 789.216V790.419H428.299L409.188 789.216ZM716.089 789.216L717.213 790.419L716.089 789.216ZM776.794 789.216V790.419H798.154L776.794 789.216ZM399.07 790.419V791.622H403.567L399.07 790.419Z" fill="#ACD049"/>
<path d="M333.868 878.242L391.201 854.433L421.859 850.536L427.549 834.932L439.541 791.622C411.326 789.24 386.574 792.669 359.724 802.45C353.235 804.82 337.679 809.03 334.546 816.152C332.375 821.097 333.868 829.566 333.868 834.932V878.242Z" fill="#047DAF"/>
<path d="M433.918 790.419V791.622H438.415L433.918 790.419ZM767.799 790.419V791.622H771.172L767.799 790.419Z" fill="#ACD049"/>
<path d="M684.613 877.039C700.949 881.249 719.627 880.72 735.201 873.586C748.658 867.414 759.96 857.164 774.548 853.784C807.713 846.084 837.223 861.279 864.482 879.445V832.526C864.482 827.04 865.999 818.45 862.68 813.831C856.136 804.748 841.662 800.188 831.881 796.844C807.204 788.422 776.633 786.485 752.064 796.074C743.925 799.238 737.194 805.012 729.58 809.283C723.382 812.76 712.865 812.122 707.826 816.718C703.812 820.375 702.253 828.64 700.352 833.729C695.042 847.937 688.385 862.277 684.613 877.039Z" fill="#047DAF"/>
<path d="M804.898 790.419V791.622H809.395L804.898 790.419ZM392.324 791.622V792.826H395.697L392.324 791.622Z" fill="#ACD049"/>
<path d="M439.543 791.622L440.667 792.825L439.543 791.622Z" fill="#4D6971"/>
<path d="M762.934 792.02L763.683 792.428L762.934 792.02ZM812.772 791.622V792.825H816.145L812.772 791.622ZM387.458 793.223L388.207 793.631L387.458 793.223ZM758.437 793.223L759.186 793.631L758.437 793.223ZM820.267 793.223L821.016 793.631L820.267 793.223ZM382.962 794.426L383.71 794.834L382.962 794.426ZM755.065 794.426L755.813 794.834L755.065 794.426ZM824.764 794.426L825.513 794.834L824.764 794.426ZM378.465 795.629L379.214 796.038L378.465 795.629Z" fill="#ACD049"/>
<path d="M438.789 796.038L439.165 796.832L438.789 796.038Z" fill="#4D6971"/>
<path d="M713.844 795.232L714.968 796.435L713.844 795.232ZM751.692 795.629L752.441 796.037L751.692 795.629ZM829.26 795.629L830.009 796.037L829.26 795.629ZM373.968 796.832L374.716 797.241L373.968 796.832ZM748.694 796.435L749.818 797.638L748.694 796.435ZM832.633 796.832L833.381 797.241L832.633 796.832ZM370.595 798.035L371.344 798.444L370.595 798.035ZM746.445 797.638L747.569 798.841L746.445 797.638ZM836.005 798.035L836.754 798.444L836.005 798.035ZM367.223 799.238L367.971 799.647L367.223 799.238Z" fill="#ACD049"/>
<path d="M437.664 799.647L438.04 800.441L437.664 799.647Z" fill="#4D6971"/>
<path d="M744.196 798.841L745.32 800.044L744.196 798.841ZM838.627 798.841L839.751 800.044L838.627 798.841ZM363.849 800.441L364.597 800.85L363.849 800.441ZM841.999 800.044L843.123 801.247L841.999 800.044ZM360.476 801.644L361.225 802.053L360.476 801.644ZM711.594 801.247L712.718 802.45L711.594 801.247ZM740.823 801.247L741.947 802.45L740.823 801.247ZM844.247 801.247L845.372 802.45L844.247 801.247ZM357.104 802.847L357.852 803.256L357.104 802.847ZM738.575 802.45L739.699 803.653L738.575 802.45ZM846.496 802.45L847.62 803.653L846.496 802.45ZM354.105 803.653L355.23 804.856L354.105 803.653Z" fill="#ACD049"/>
<path d="M436.168 803.653L437.292 804.856L436.168 803.653Z" fill="#4D6971"/>
<path d="M737.449 803.653L738.573 804.856L737.449 803.653ZM848.742 803.653L849.866 804.856L848.742 803.653ZM351.481 805.253L352.23 805.662L351.481 805.253ZM735.2 804.856L736.324 806.059L735.2 804.856ZM850.991 804.856L852.115 806.059L850.991 804.856ZM348.483 806.059L349.607 807.262L348.483 806.059ZM853.239 806.059L854.363 807.262L853.239 806.059ZM346.234 807.262L347.359 808.465L346.234 807.262Z" fill="#ACD049"/>
<path d="M435.043 807.262L436.167 808.465L435.043 807.262Z" fill="#4D6971"/>
<path d="M709.347 807.262L710.471 808.465L709.347 807.262ZM731.831 807.262L732.955 808.465L731.831 807.262ZM343.989 808.465L345.113 809.668L343.989 808.465ZM729.582 808.465L730.706 809.668L729.582 808.465ZM856.614 808.465L857.739 809.668L856.614 808.465ZM341.741 809.668L342.865 810.871L341.741 809.668ZM727.334 809.668L728.458 810.871L727.334 809.668ZM858.863 809.668L859.987 810.871L858.863 809.668ZM339.492 810.871L340.616 812.074L339.492 810.871Z" fill="#ACD049"/>
<path d="M433.918 810.871L435.042 812.074L433.918 810.871ZM639.268 811.268L640.017 811.677L639.268 811.268Z" fill="#4D6971"/>
<path d="M724.71 811.268L725.458 811.677L724.71 811.268ZM859.985 810.871L861.109 812.074L859.985 810.871ZM337.242 812.074L338.366 813.277L337.242 812.074Z" fill="#ACD049"/>
<path d="M636.273 812.074L637.398 813.277L636.273 812.074Z" fill="#4D6971"/>
<path d="M496.879 878.242V879.445C526.24 879.445 546.05 864.371 573.323 856.286C593.091 850.415 612.986 851.245 632.905 855.384L640.774 812.074C628.1 814.48 615.488 822.998 603.676 828.412C568.769 844.4 533.33 867.005 496.879 878.242Z" fill="#047DAF"/>
<path d="M721.335 812.471L722.084 812.88L721.335 812.471ZM861.108 812.074L862.232 813.277L861.108 812.074ZM334.992 813.277L336.116 814.48L334.992 813.277Z" fill="#ACD049"/>
<path d="M634.023 813.277L635.148 814.48L634.023 813.277ZM640.019 814.083L640.394 814.877L640.019 814.083Z" fill="#4D6971"/>
<path d="M707.098 813.277L710.47 815.683V814.48L707.098 813.277ZM714.967 813.277V814.48H718.339L714.967 813.277ZM863.358 813.277L864.483 814.48L863.358 813.277ZM332.746 814.48V862.602L334.994 879.445C330.544 859.438 340.095 833.224 332.746 814.48Z" fill="#ACD049"/>
<path d="M432.797 814.48L433.921 815.683L432.797 814.48ZM631.777 814.48L632.901 815.683L631.777 814.48ZM628.404 815.683L629.529 816.886L628.404 815.683ZM706.347 816.489L706.723 817.284L706.347 816.489ZM626.156 816.886L627.28 818.089L626.156 816.886ZM432.047 818.895L432.423 819.69L432.047 818.895ZM623.908 818.089L625.032 819.293L623.908 818.089ZM621.659 819.293L622.783 820.496L621.659 819.293ZM638.896 820.098L639.272 820.893L638.896 820.098ZM704.849 819.293L705.973 820.496L704.849 819.293ZM618.287 820.496L619.411 821.699L618.287 820.496ZM430.923 822.505L431.299 823.299L430.923 822.505ZM616.038 821.699L617.163 822.902L616.038 821.699ZM704.099 822.505L704.474 823.299L704.099 822.505ZM613.79 822.902L614.914 824.105L613.79 822.902ZM611.167 824.502L611.916 824.911L611.167 824.502ZM608.169 825.308L609.293 826.511L608.169 825.308ZM637.772 826.114L638.148 826.908L637.772 826.114ZM702.6 825.308L703.724 826.511L702.6 825.308ZM429.425 826.511L430.549 827.714L429.425 826.511ZM605.921 826.511L607.045 827.714L605.921 826.511ZM603.672 827.714L604.797 828.917L603.672 827.714ZM600.3 828.917L601.424 830.12L600.3 828.917ZM701.476 828.917L702.6 830.12L701.476 828.917ZM428.301 830.12L429.425 831.323L428.301 830.12ZM598.052 830.12L599.176 831.323L598.052 830.12ZM595.803 831.323L596.927 832.526L595.803 831.323ZM636.648 832.129L637.023 832.923L636.648 832.129ZM700.352 831.323L701.476 832.526L700.352 831.323ZM593.555 832.526L594.679 833.729L593.555 832.526ZM427.176 833.729L428.301 834.932L427.176 833.729ZM590.182 833.729L591.306 834.932L590.182 833.729ZM587.934 834.932L589.058 836.135L587.934 834.932ZM699.228 834.932L700.352 836.135L699.228 834.932ZM585.686 836.135L586.81 837.338L585.686 836.135ZM426.052 837.338L427.176 838.541L426.052 837.338ZM583.063 837.735L583.812 838.144L583.063 837.735ZM635.524 838.144L635.899 838.938L635.524 838.144ZM698.103 837.338L699.228 838.541L698.103 837.338ZM580.065 838.541L581.189 839.744L580.065 838.541ZM577.816 839.744L578.941 840.947L577.816 839.744ZM425.302 841.753L425.678 842.548L425.302 841.753ZM575.568 840.947L576.692 842.15L575.568 840.947ZM696.979 840.947L698.103 842.15L696.979 840.947ZM572.195 842.15L573.32 843.353L572.195 842.15ZM569.947 843.353L571.071 844.557L569.947 843.353ZM634.4 844.159L634.775 844.954L634.4 844.159ZM695.855 843.353L696.979 844.557L695.855 843.353ZM424.178 845.362L424.554 846.157L424.178 845.362ZM567.699 844.557L568.823 845.76L567.699 844.557ZM565.45 845.76L566.575 846.963L565.45 845.76ZM562.078 846.963L563.202 848.166L562.078 846.963ZM694.731 846.963L695.855 848.166L694.731 846.963ZM559.829 848.166L560.954 849.369L559.829 848.166ZM422.68 849.369L423.804 850.572L422.68 849.369ZM557.581 849.369L558.705 850.572L557.581 849.369ZM633.275 850.175L633.651 850.969L633.275 850.175ZM693.607 849.369L694.731 850.572L693.607 849.369ZM554.958 850.969L555.707 851.378L554.958 850.969Z" fill="#4D6971"/>
<path d="M402.441 851.775V852.978H409.186L402.441 851.775Z" fill="#ACD049"/>
<path d="M551.961 851.775L553.085 852.978L551.961 851.775Z" fill="#4D6971"/>
<path d="M594.674 851.775V852.978H614.909L594.674 851.775ZM782.412 851.775V852.978H800.399L782.412 851.775ZM394.57 852.978V854.181H399.067L394.57 852.978ZM421.551 852.978L422.675 854.181L421.551 852.978Z" fill="#ACD049"/>
<path d="M549.711 852.978L550.835 854.181L549.711 852.978Z" fill="#4D6971"/>
<path d="M584.559 852.978V854.181H589.055L584.559 852.978ZM620.532 852.978V854.181H625.029L620.532 852.978Z" fill="#ACD049"/>
<path d="M692.484 852.978L693.609 854.181L692.484 852.978Z" fill="#4D6971"/>
<path d="M774.546 852.978V854.181H777.919L774.546 852.978ZM806.023 852.978V854.181H809.396L806.023 852.978ZM388.953 854.181V855.384H392.326L388.953 854.181Z" fill="#ACD049"/>
<path d="M547.465 854.181L548.589 855.384L547.465 854.181Z" fill="#4D6971"/>
<path d="M579.69 854.578L580.439 854.987L579.69 854.578ZM629.154 854.578L629.903 854.987L629.154 854.578ZM770.8 854.578L771.549 854.987L770.8 854.578ZM812.769 854.181V855.384H816.142L812.769 854.181ZM385.207 855.781L385.956 856.19L385.207 855.781Z" fill="#ACD049"/>
<path d="M544.09 855.384L545.214 856.587L544.09 855.384Z" fill="#4D6971"/>
<path d="M573.316 855.384V856.587H576.689L573.316 855.384ZM632.148 856.19L632.524 856.984L632.148 856.19Z" fill="#ACD049"/>
<path d="M691.359 855.384L692.484 856.587L691.359 855.384Z" fill="#4D6971"/>
<path d="M766.679 855.384L767.803 856.587L766.679 855.384ZM819.141 855.781L819.889 856.19L819.141 855.781ZM380.711 856.984L381.46 857.393L380.711 856.984ZM420.432 856.587L421.556 857.79L420.432 856.587Z" fill="#ACD049"/>
<path d="M541.84 856.587L542.964 857.79L541.84 856.587Z" fill="#4D6971"/>
<path d="M570.695 856.984L571.443 857.393L570.695 856.984ZM764.053 856.984L764.802 857.393L764.053 856.984ZM823.635 856.984L824.384 857.393L823.635 856.984ZM377.336 858.187L378.085 858.596L377.336 858.187Z" fill="#ACD049"/>
<path d="M539.594 857.79L540.718 858.993L539.594 857.79Z" fill="#4D6971"/>
<path d="M567.324 858.187L568.072 858.596L567.324 858.187ZM761.057 857.79L762.181 858.993L761.057 857.79ZM827.009 858.187L827.758 858.596L827.009 858.187ZM373.965 859.39L374.714 859.799L373.965 859.39Z" fill="#ACD049"/>
<path d="M537.344 858.993L538.468 860.196L537.344 858.993Z" fill="#4D6971"/>
<path d="M563.953 859.39L564.702 859.799L563.953 859.39Z" fill="#ACD049"/>
<path d="M690.234 858.993L691.359 860.196L690.234 858.993Z" fill="#4D6971"/>
<path d="M758.81 858.993L759.934 860.196L758.81 858.993ZM830.383 859.39L831.132 859.799L830.383 859.39ZM370.594 860.593L371.342 861.002L370.594 860.593ZM419.308 860.196L420.432 861.399L419.308 860.196Z" fill="#ACD049"/>
<path d="M533.977 860.196L535.101 861.399L533.977 860.196Z" fill="#4D6971"/>
<path d="M560.956 860.196L562.08 861.399L560.956 860.196ZM756.563 860.196L757.687 861.399L756.563 860.196ZM833.007 860.196L834.131 861.399L833.007 860.196ZM367.223 861.796L367.971 862.205L367.223 861.796Z" fill="#ACD049"/>
<path d="M531.727 861.399L532.851 862.602L531.727 861.399Z" fill="#4D6971"/>
<path d="M558.332 861.796L559.081 862.205L558.332 861.796ZM631.028 862.205L631.404 862.999L631.028 862.205Z" fill="#ACD049"/>
<path d="M689.109 861.399L690.234 862.602L689.109 861.399Z" fill="#4D6971"/>
<path d="M754.313 861.399L755.437 862.602L754.313 861.399ZM836.003 861.796L836.752 862.205L836.003 861.796ZM364.223 862.602L365.347 863.805L364.223 862.602Z" fill="#ACD049"/>
<path d="M529.477 862.602L530.601 863.805L529.477 862.602Z" fill="#4D6971"/>
<path d="M555.331 862.602L556.455 863.805L555.331 862.602ZM752.062 862.602L753.186 863.805L752.062 862.602ZM838.624 862.602L839.748 863.805L838.624 862.602ZM361.598 864.202L362.346 864.611L361.598 864.202ZM418.181 863.805L419.305 865.008L418.181 863.805Z" fill="#ACD049"/>
<path d="M526.855 864.202L527.604 864.611L526.855 864.202Z" fill="#4D6971"/>
<path d="M553.081 863.805L554.205 865.008L553.081 863.805ZM750.936 863.805L752.06 865.008L750.936 863.805ZM840.87 863.805L841.994 865.008L840.87 863.805ZM358.598 865.008L359.722 866.211L358.598 865.008Z" fill="#ACD049"/>
<path d="M523.855 865.008L524.98 866.211L523.855 865.008Z" fill="#4D6971"/>
<path d="M550.836 865.008L551.96 866.211L550.836 865.008Z" fill="#ACD049"/>
<path d="M687.984 865.008L689.109 866.211L687.984 865.008Z" fill="#4D6971"/>
<path d="M748.694 865.008L749.818 866.211L748.694 865.008ZM843.125 865.008L844.249 866.211L843.125 865.008ZM356.355 866.211L357.48 867.414L356.355 866.211Z" fill="#ACD049"/>
<path d="M521.605 866.211L522.73 867.414L521.605 866.211Z" fill="#4D6971"/>
<path d="M548.584 866.211L549.708 867.414L548.584 866.211ZM746.439 866.211L747.563 867.414L746.439 866.211ZM845.367 866.211L846.491 867.414L845.367 866.211ZM353.727 867.812L354.475 868.22L353.727 867.812Z" fill="#ACD049"/>
<path d="M519.355 867.414L520.48 868.618L519.355 867.414Z" fill="#4D6971"/>
<path d="M546.34 867.414L547.464 868.618L546.34 867.414Z" fill="#ACD049"/>
<path d="M686.863 867.414L687.987 868.618L686.863 867.414Z" fill="#4D6971"/>
<path d="M745.321 867.414L746.445 868.618L745.321 867.414ZM847.621 867.414L848.746 868.618L847.621 867.414ZM350.734 868.618L351.859 869.821L350.734 868.618Z" fill="#ACD049"/>
<path d="M515.988 868.617L517.112 869.821L515.988 868.617Z" fill="#4D6971"/>
<path d="M543.717 869.015L544.466 869.423L543.717 869.015ZM629.529 868.617L630.653 869.821L629.529 868.617ZM743.071 868.617L744.195 869.821L743.071 868.617ZM849.868 868.617L850.992 869.821L849.868 868.617ZM348.484 869.821L349.609 871.024L348.484 869.821Z" fill="#ACD049"/>
<path d="M513.738 869.82L514.862 871.024L513.738 869.82Z" fill="#4D6971"/>
<path d="M540.717 869.82L541.841 871.024L540.717 869.82ZM740.821 869.82L741.945 871.024L740.821 869.82ZM850.991 869.82L852.115 871.024L850.991 869.82ZM346.234 871.024L347.359 872.227L346.234 871.024Z" fill="#ACD049"/>
<path d="M511.488 871.024L512.612 872.227L511.488 871.024Z" fill="#4D6971"/>
<path d="M538.469 871.024L539.593 872.227L538.469 871.024Z" fill="#ACD049"/>
<path d="M685.734 871.024L686.859 872.227L685.734 871.024Z" fill="#4D6971"/>
<path d="M738.571 871.024L739.695 872.227L738.571 871.024ZM853.237 871.024L854.362 872.227L853.237 871.024ZM343.984 872.227L345.109 873.43L343.984 872.227ZM415.932 872.227L417.056 873.43L415.932 872.227Z" fill="#ACD049"/>
<path d="M509.238 872.227L510.362 873.43L509.238 872.227Z" fill="#4D6971"/>
<path d="M536.217 872.227L537.341 873.43L536.217 872.227ZM736.321 872.227L737.445 873.43L736.321 872.227ZM855.484 872.227L856.608 873.43L855.484 872.227ZM341.734 873.43L342.859 874.633L341.734 873.43Z" fill="#ACD049"/>
<path d="M505.867 873.43L506.991 874.633L505.867 873.43Z" fill="#4D6971"/>
<path d="M532.848 873.43L533.972 874.633L532.848 873.43Z" fill="#ACD049"/>
<path d="M684.613 873.43L685.737 874.633L684.613 873.43Z" fill="#4D6971"/>
<path d="M734.08 873.43L735.204 874.633L734.08 873.43ZM856.615 873.43L857.739 874.633L856.615 873.43ZM340.617 874.633L341.741 875.836L340.617 874.633Z" fill="#ACD049"/>
<path d="M503.617 874.633L504.741 875.836L503.617 874.633Z" fill="#4D6971"/>
<path d="M530.227 875.03L530.976 875.439L530.227 875.03ZM628.405 874.633L629.529 875.836L628.405 874.633ZM731.455 875.03L732.204 875.439L731.455 875.03ZM338.367 875.836L339.491 877.039L338.367 875.836ZM414.811 875.836L415.936 877.039L414.811 875.836Z" fill="#ACD049"/>
<path d="M501.367 875.836L502.491 877.039L501.367 875.836Z" fill="#4D6971"/>
<path d="M526.853 876.233L527.602 876.642L526.853 876.233ZM728.081 876.233L728.83 876.642L728.081 876.233ZM859.984 875.836L861.109 877.039L859.984 875.836ZM336.117 877.039L337.241 878.242L336.117 877.039Z" fill="#ACD049"/>
<path d="M498.75 877.436L499.499 877.845L498.75 877.436Z" fill="#4D6971"/>
<path d="M522.355 877.436L523.104 877.845L522.355 877.436ZM683.487 877.039V878.242H686.86L683.487 877.039ZM723.583 877.436L724.332 877.845L723.583 877.436ZM861.108 877.039L862.232 878.242L861.108 877.039Z" fill="#ACD049"/>
<path d="M495.75 878.242L496.874 879.445L495.75 878.242Z" fill="#4D6971"/>
<path d="M514.862 878.242V879.445H518.235L514.862 878.242ZM690.234 878.242V879.445H694.731L690.234 878.242ZM716.09 878.242V879.445H719.463L716.09 878.242ZM413.686 879.445L414.81 880.648L413.686 879.445ZM493.503 879.445L494.627 880.648L493.503 879.445ZM502.496 879.445V880.648H506.993L502.496 879.445ZM702.6 879.445V880.648H707.097L702.6 879.445ZM491.255 880.648L492.379 881.851L491.255 880.648ZM627.28 880.648L628.404 881.851L627.28 880.648ZM412.562 883.054L413.686 884.257L412.562 883.054ZM485.634 883.054L486.758 884.257L485.634 883.054ZM681.241 883.054L682.365 884.257L681.241 883.054ZM483.385 884.257L484.51 885.46L483.385 884.257ZM411.438 886.663L412.562 887.866L411.438 886.663ZM626.156 886.663L627.28 887.866L626.156 886.663ZM475.516 887.866L476.64 889.069L475.516 887.866ZM473.268 889.069L474.392 890.272L473.268 889.069ZM678.992 889.069L680.117 890.272L678.992 889.069ZM467.647 891.475L468.771 892.678L467.647 891.475ZM465.399 892.678L466.523 893.881L465.399 892.678ZM625.032 892.678L626.156 893.881L625.032 892.678ZM463.15 893.881L464.274 895.085L463.15 893.881ZM409.19 895.085L410.314 896.288L409.19 895.085ZM676.744 895.085L677.868 896.288L676.744 895.085ZM457.529 896.288L458.653 897.491L457.529 896.288ZM455.281 897.491L456.405 898.694L455.281 897.491ZM408.065 898.694L409.19 899.897L408.065 898.694ZM623.908 898.694L625.032 899.897L623.908 898.694ZM447.412 901.1L448.536 902.303L447.412 901.1ZM674.496 901.1L675.62 902.303L674.496 901.1ZM406.941 902.303L408.065 903.506L406.941 902.303ZM445.163 902.303L446.287 903.506L445.163 902.303ZM439.542 904.709L440.667 905.912L439.542 904.709ZM622.784 904.709L623.908 905.912L622.784 904.709ZM405.817 905.912L406.941 907.115L405.817 905.912ZM437.294 905.912L438.418 907.115L437.294 905.912ZM672.247 907.115L673.372 908.318L672.247 907.115ZM429.425 909.521L430.549 910.724L429.425 909.521ZM427.176 910.724L428.301 911.927L427.176 910.724ZM621.659 910.724L622.784 911.927L621.659 910.724ZM669.999 913.13L671.123 914.333L669.999 913.13ZM403.569 914.333L404.693 915.536L403.569 914.333ZM419.307 914.333L420.431 915.536L419.307 914.333ZM417.059 915.536L418.183 916.739L417.059 915.536ZM620.535 916.739L621.659 917.942L620.535 916.739ZM402.444 917.942L403.569 919.145L402.444 917.942ZM411.438 917.942L412.562 919.145L411.438 917.942ZM409.19 919.145L410.314 920.349L409.19 919.145ZM667.751 919.145L668.875 920.349L667.751 919.145ZM401.32 921.552L402.444 922.755L401.32 921.552ZM619.411 922.755L620.535 923.958L619.411 922.755ZM665.502 925.161L666.627 926.364L665.502 925.161Z" fill="#ACD049"/>
<path d="M618.287 928.77L619.411 929.973L618.287 928.77ZM663.254 931.176L664.378 932.379L663.254 931.176ZM617.163 934.785L618.287 935.988L617.163 934.785ZM661.006 937.191L662.13 938.394L661.006 937.191ZM401.32 939.597V940.8H406.941L401.32 939.597Z" fill="#ACD049"/>
<path d="M333.871 1028.62C361.212 1016.38 386.126 1000.22 417.06 1000.96C444.455 1001.64 464.112 1022.86 490.132 1027.88C522.301 1034.1 543.982 1014.33 573.321 1005.96C579.893 1004.07 600.844 1005.15 604.812 1000.23C607.715 996.622 607.555 988.634 608.395 984.11C611.039 969.878 614.964 955.273 616.04 940.8C596.305 936.878 574.025 941.342 555.334 948.548C539.588 954.611 522.942 964.609 505.87 964.837C487.711 965.078 472.149 950.713 455.282 945.276C427.14 936.205 397.546 938.96 369.845 948.428C361.1 951.423 338.436 956.428 334.549 966.293C332.481 971.526 333.871 979.707 333.871 985.313V1028.62Z" fill="#047DAF"/>
<path d="M429.426 939.597V940.8H435.047L429.426 939.597ZM585.687 939.597V940.8H591.308L585.687 939.597ZM612.667 939.597V940.8H617.164L612.667 939.597ZM770.052 939.597V940.8H775.673L770.052 939.597Z" fill="#ACD049"/>
<path d="M656.509 952.831L636.273 1005.76C665.661 1019.77 694.307 1036 727.332 1026.31C747.246 1020.48 762.038 1003.21 783.541 1002.2C815.813 1000.68 836.775 1013.87 864.482 1028.62V984.11C864.482 978.407 865.878 970.106 863.326 964.909C858.406 954.888 841.247 949.691 831.881 946.418C807.672 937.973 777.379 935.819 753.188 945.251C738.953 950.797 728.244 962.347 712.718 964.512C692.734 967.303 675.197 958.292 656.509 952.831Z" fill="#047DAF"/>
<path d="M800.399 939.597V940.8H806.02L800.399 939.597ZM394.57 940.8V942.003H397.943L394.57 940.8ZM438.413 940.8V942.003H442.91L438.413 940.8ZM578.936 940.8V942.003H582.308L578.936 940.8Z" fill="#ACD049"/>
<path d="M616.41 941.606L616.786 942.4L616.41 941.606Z" fill="#4D6971"/>
<path d="M763.31 940.8V942.003H766.682L763.31 940.8ZM810.525 940.8V942.003H813.898L810.525 940.8ZM389.708 942.4L390.457 942.809L389.708 942.4ZM445.917 942.4L446.666 942.809L445.917 942.4ZM574.073 942.4L574.822 942.809L574.073 942.4ZM759.563 942.4L760.311 942.809L759.563 942.4ZM817.27 942.003V943.206H820.643L817.27 942.003ZM383.337 943.206V944.409H386.71L383.337 943.206ZM450.414 943.603L451.162 944.012L450.414 943.603ZM569.576 943.603L570.325 944.012L569.576 943.603ZM658.761 943.206L659.885 944.409L658.761 943.206ZM756.19 943.603L756.939 944.012L756.19 943.603ZM823.641 943.603L824.39 944.012L823.641 943.603ZM379.59 944.806L380.339 945.215L379.59 944.806ZM454.16 944.409L455.285 945.612L454.16 944.409ZM565.08 944.806L565.829 945.215L565.08 944.806ZM752.818 944.806L753.566 945.215L752.818 944.806ZM828.138 944.806L828.886 945.215L828.138 944.806ZM374.344 945.612V946.815H377.716L374.344 945.612ZM457.533 945.612L458.657 946.815L457.533 945.612ZM561.707 946.01L562.456 946.418L561.707 946.01Z" fill="#ACD049"/>
<path d="M614.914 945.612V949.221H616.038L614.914 945.612Z" fill="#4D6971"/>
<path d="M749.815 945.612L750.939 946.815L749.815 945.612ZM831.506 946.009L832.254 946.418L831.506 946.009ZM371.717 947.212L372.465 947.621L371.717 947.212ZM460.901 946.815L462.025 948.018L460.901 946.815ZM557.581 946.815L558.705 948.018L557.581 946.815ZM747.567 946.815L748.691 948.018L747.567 946.815ZM834.878 947.212L835.627 947.621L834.878 947.212ZM368.344 948.415L369.093 948.824L368.344 948.415ZM463.899 948.415L464.648 948.824L463.899 948.415ZM554.208 948.018L555.332 949.221L554.208 948.018ZM745.318 948.018L746.443 949.221L745.318 948.018ZM837.501 948.018L838.625 949.221L837.501 948.018ZM364.972 949.619L365.72 950.027L364.972 949.619ZM466.522 949.221L467.646 950.424L466.522 949.221ZM551.585 949.619L552.334 950.027L551.585 949.619ZM656.508 949.221L657.632 950.424L656.508 949.221ZM743.07 949.221L744.194 950.424L743.07 949.221ZM840.874 949.221L841.998 950.424L840.874 949.221ZM361.599 950.822L362.348 951.23L361.599 950.822ZM468.77 950.424L469.895 951.628L468.77 950.424ZM548.213 950.822L548.961 951.23L548.213 950.822ZM843.122 950.424L844.246 951.628L843.122 950.424ZM358.227 952.025L358.975 952.433L358.227 952.025ZM471.019 951.628L472.143 952.831L471.019 951.628ZM545.215 951.628L546.339 952.831L545.215 951.628Z" fill="#ACD049"/>
<path d="M613.785 951.628V955.237H614.909L613.785 951.628Z" fill="#4D6971"/>
<path d="M739.696 951.628L740.82 952.831L739.696 951.628ZM845.369 951.628L846.493 952.831L845.369 951.628ZM355.227 952.831L356.351 954.034L355.227 952.831ZM473.265 952.831L474.39 954.034L473.265 952.831ZM542.59 953.228L543.339 953.637L542.59 953.228Z" fill="#ACD049"/>
<path d="M655.383 952.831L656.507 954.034L655.383 952.831Z" fill="#4D6971"/>
<path d="M658.758 952.831L659.882 954.034L658.758 952.831ZM737.45 952.831L738.575 954.034L737.45 952.831ZM847.62 952.831L848.744 954.034L847.62 952.831Z" fill="#ACD049"/>
<path d="M352.605 954.431L353.354 954.84L352.605 954.431ZM475.515 954.034L476.639 955.237L475.515 954.034ZM539.594 954.034L540.718 955.237L539.594 954.034ZM661.755 954.431L662.503 954.84L661.755 954.431ZM736.325 954.034L737.449 955.237L736.325 954.034ZM849.867 954.034L850.991 955.237L849.867 954.034Z" fill="#ACD049"/>
<path d="M349.605 955.237L350.73 956.44L349.605 955.237ZM477.762 955.237L478.886 956.44L477.762 955.237ZM536.219 955.237L537.343 956.44L536.219 955.237Z" fill="#ACD049"/>
<path d="M654.262 955.237L655.386 956.44L654.262 955.237Z" fill="#4D6971"/>
<path d="M664.376 955.237L665.5 956.44L664.376 955.237ZM734.075 955.237L735.199 956.44L734.075 955.237ZM852.114 955.237L853.238 956.44L852.114 955.237ZM347.358 956.44L348.482 957.643L347.358 956.44ZM480.011 956.44L481.135 957.643L480.011 956.44ZM533.597 956.837L534.346 957.246L533.597 956.837ZM667.749 956.44L668.873 957.643L667.749 956.44ZM854.362 956.44L855.487 957.643L854.362 956.44ZM345.109 957.643L346.234 958.846L345.109 957.643ZM482.259 957.643L483.383 958.846L482.259 957.643ZM530.599 957.643L531.723 958.846L530.599 957.643Z" fill="#ACD049"/>
<path d="M612.664 957.643V961.252H613.788L612.664 957.643ZM653.509 958.449L653.884 959.243L653.509 958.449Z" fill="#4D6971"/>
<path d="M671.123 957.643L672.247 958.846L671.123 957.643ZM730.705 957.643L731.829 958.846L730.705 957.643ZM342.489 959.243L343.237 959.652L342.489 959.243ZM485.259 959.243L486.008 959.652L485.259 959.243ZM527.978 959.243L528.727 959.652L527.978 959.243ZM674.496 958.846L675.62 960.049L674.496 958.846ZM728.456 958.846L729.581 960.049L728.456 958.846ZM857.737 958.846L858.861 960.049L857.737 958.846ZM339.491 960.049L340.615 961.252L339.491 960.049ZM487.882 960.049L489.006 961.252L487.882 960.049ZM524.606 960.446L525.354 960.855L524.606 960.446ZM678.618 960.446L679.367 960.855L678.618 960.446ZM725.834 960.446L726.582 960.855L725.834 960.446ZM337.242 961.252L338.366 962.455L337.242 961.252ZM490.88 961.649L491.629 962.058L490.88 961.649ZM521.233 961.649L521.982 962.058L521.233 961.649Z" fill="#ACD049"/>
<path d="M652.012 961.252L653.136 962.455L652.012 961.252Z" fill="#4D6971"/>
<path d="M683.112 961.649L683.861 962.058L683.112 961.649ZM722.833 961.252L723.957 962.455L722.833 961.252ZM861.107 961.252L862.231 962.455L861.107 961.252ZM336.116 962.455L337.24 963.658L336.116 962.455ZM494.25 962.852L494.999 963.261L494.25 962.852ZM516.734 962.852L517.483 963.261L516.734 962.852ZM686.859 962.455V963.658H690.232L686.859 962.455ZM719.086 962.852L719.835 963.261L719.086 962.852ZM862.231 962.455L863.355 963.658L862.231 962.455ZM333.867 963.658L334.991 964.861L333.867 963.658ZM497.997 963.658V964.861H503.618L497.997 963.658ZM506.991 963.658V964.861H512.612L506.991 963.658Z" fill="#ACD049"/>
<path d="M611.543 963.658V967.267H612.667L611.543 963.658ZM651.264 964.464L651.639 965.258L651.264 964.464Z" fill="#4D6971"/>
<path d="M694.732 963.658V964.861H702.601L694.732 963.658ZM707.098 963.658V964.861H714.967L707.098 963.658ZM863.358 963.658L864.483 964.861L863.358 963.658ZM332.746 964.861V1012.98L334.994 1029.83C330.544 1009.82 340.095 983.605 332.746 964.861Z" fill="#ACD049"/>
<path d="M649.762 967.267L650.886 968.47L649.762 967.267ZM610.415 969.673V973.282H611.54L610.415 969.673ZM649.012 970.479L649.387 971.273L649.012 970.479ZM647.513 973.282L648.637 974.485L647.513 973.282ZM609.291 975.688V979.298H610.415L609.291 975.688ZM646.763 976.494L647.139 977.289L646.763 976.494ZM645.265 979.298L646.389 980.501L645.265 979.298ZM608.167 981.704V985.313H609.291L608.167 981.704ZM644.515 982.51L644.891 983.304L644.515 982.51ZM643.017 985.313L644.141 986.516L643.017 985.313ZM607.043 987.719V991.328H608.167L607.043 987.719ZM641.892 988.922L643.017 990.125L641.892 988.922ZM640.768 991.328L641.892 992.531L640.768 991.328ZM606.293 995.743L606.668 996.537L606.293 995.743ZM639.644 994.937L640.768 996.14L639.644 994.937ZM638.52 997.343L639.644 998.546L638.52 997.343Z" fill="#4D6971"/>
<path d="M406.941 1000.95V1002.16H423.804L406.941 1000.95Z" fill="#ACD049"/>
<path d="M604.797 1000.95L605.921 1002.16L604.797 1000.95ZM637.398 1000.95L638.522 1002.16L637.398 1000.95Z" fill="#4D6971"/>
<path d="M397.948 1002.16V1003.36H402.445L397.948 1002.16ZM428.301 1002.16V1003.36H431.674L428.301 1002.16ZM587.934 1002.16V1003.36H593.555L587.934 1002.16ZM777.921 1002.16V1003.36H782.417L777.921 1002.16ZM800.404 1002.16V1003.36H806.025L800.404 1002.16ZM391.203 1003.36V1004.56H394.576L391.203 1003.36ZM434.672 1003.76L435.42 1004.16L434.672 1003.76ZM581.189 1003.36V1004.56H584.562L581.189 1003.36Z" fill="#ACD049"/>
<path d="M636.273 1003.36L637.398 1004.56L636.273 1003.36Z" fill="#4D6971"/>
<path d="M773.048 1003.76L773.797 1004.16L773.048 1003.76ZM809.396 1003.36V1004.56H812.769L809.396 1003.36ZM387.455 1004.96L388.204 1005.37L387.455 1004.96ZM439.167 1004.96L439.916 1005.37L439.167 1004.96ZM575.567 1004.56V1005.76H578.94L575.567 1004.56ZM768.552 1004.96L769.3 1005.37L768.552 1004.96ZM815.017 1004.56V1005.76H818.39L815.017 1004.56ZM382.958 1006.16L383.707 1006.57L382.958 1006.16ZM442.54 1006.16L443.289 1006.57L442.54 1006.16ZM571.071 1005.76V1006.97H574.443L571.071 1005.76ZM636.273 1005.76L637.397 1006.97L636.273 1005.76ZM765.179 1006.16L765.928 1006.57L765.179 1006.16ZM821.388 1006.16L822.137 1006.57L821.388 1006.16ZM378.462 1007.36L379.21 1007.77L378.462 1007.36ZM445.162 1006.97L446.287 1008.17L445.162 1006.97ZM568.448 1007.36L569.197 1007.77L568.448 1007.36ZM603.672 1006.97L604.796 1008.17L603.672 1006.97ZM635.149 1006.97L636.273 1008.17L635.149 1006.97ZM639.645 1006.97L640.77 1008.17L639.645 1006.97ZM762.181 1006.97L763.305 1008.17L762.181 1006.97ZM824.761 1007.36L825.509 1007.77L824.761 1007.36ZM375.089 1008.57L375.838 1008.98L375.089 1008.57ZM447.411 1008.17L448.535 1009.37L447.411 1008.17ZM565.075 1008.57L565.824 1008.98L565.075 1008.57ZM643.018 1008.17L644.142 1009.37L643.018 1008.17ZM759.933 1008.17L761.057 1009.37L759.933 1008.17ZM828.133 1008.57L828.882 1008.98L828.133 1008.57ZM371.717 1009.77L372.465 1010.18L371.717 1009.77ZM449.659 1009.37L450.783 1010.58L449.659 1009.37ZM562.077 1009.37L563.201 1010.58L562.077 1009.37ZM634.025 1009.37L635.149 1010.58L634.025 1009.37ZM645.266 1009.37L646.39 1010.58L645.266 1009.37ZM757.684 1009.37L758.808 1010.58L757.684 1009.37ZM831.506 1009.77L832.254 1010.18L831.506 1009.77ZM368.718 1010.58L369.843 1011.78L368.718 1010.58ZM451.908 1010.58L453.032 1011.78L451.908 1010.58ZM559.454 1010.97L560.203 1011.38L559.454 1010.97ZM648.639 1010.58L649.763 1011.78L648.639 1010.58ZM755.436 1010.58L756.56 1011.78L755.436 1010.58ZM834.128 1010.58L835.252 1011.78L834.128 1010.58ZM365.346 1011.78L366.47 1012.98L365.346 1011.78ZM454.156 1011.78L455.28 1012.98L454.156 1011.78ZM556.456 1011.78L557.58 1012.98L556.456 1011.78ZM650.887 1011.78L652.011 1012.98L650.887 1011.78ZM753.187 1011.78L754.312 1012.98L753.187 1011.78ZM837.126 1012.18L837.875 1012.59L837.126 1012.18ZM362.723 1013.38L363.472 1013.79L362.723 1013.38ZM456.404 1012.98L457.528 1014.19L456.404 1012.98ZM554.208 1012.98L555.332 1014.19L554.208 1012.98ZM602.548 1012.98L603.672 1014.19L602.548 1012.98ZM632.9 1012.98L634.025 1014.19L632.9 1012.98ZM653.136 1012.98L654.26 1014.19L653.136 1012.98ZM750.939 1012.98L752.063 1014.19L750.939 1012.98ZM839.749 1012.98L840.873 1014.19L839.749 1012.98ZM359.725 1014.19L360.849 1015.39L359.725 1014.19ZM458.653 1014.19L459.777 1015.39L458.653 1014.19ZM551.959 1014.19L553.084 1015.39L551.959 1014.19ZM655.384 1014.19L656.508 1015.39L655.384 1014.19ZM749.815 1014.19L750.939 1015.39L749.815 1014.19ZM841.998 1014.19L843.122 1015.39L841.998 1014.19ZM357.477 1015.39L358.601 1016.59L357.477 1015.39ZM460.901 1015.39L462.025 1016.59L460.901 1015.39ZM549.711 1015.39L550.835 1016.59L549.711 1015.39ZM631.776 1015.39L632.9 1016.59L631.776 1015.39ZM657.632 1015.39L658.756 1016.59L657.632 1015.39ZM747.567 1015.39L748.691 1016.59L747.567 1015.39ZM844.246 1015.39L845.37 1016.59L844.246 1015.39Z" fill="#ACD049"/>
<path d="M354.851 1016.99L355.6 1017.4L354.851 1016.99ZM463.147 1016.59L464.271 1017.79L463.147 1016.59ZM547.46 1016.59L548.584 1017.79L547.46 1016.59ZM659.878 1016.59L661.002 1017.79L659.878 1016.59ZM846.491 1016.59L847.616 1017.79L846.491 1016.59ZM351.853 1017.79L352.977 1019L351.853 1017.79ZM465.395 1017.79L466.519 1019L465.395 1017.79ZM545.212 1017.79L546.336 1019L545.212 1017.79ZM662.126 1017.79L663.25 1019L662.126 1017.79ZM744.191 1017.79L745.315 1019L744.191 1017.79ZM848.74 1017.79L849.864 1019L848.74 1017.79ZM349.604 1019L350.729 1020.2L349.604 1019ZM467.643 1019L468.767 1020.2L467.643 1019ZM542.589 1019.4L543.338 1019.8L542.589 1019.4ZM601.42 1019L602.545 1020.2L601.42 1019ZM630.649 1019L631.773 1020.2L630.649 1019ZM664.375 1019L665.499 1020.2L664.375 1019ZM741.943 1019L743.067 1020.2L741.943 1019ZM849.864 1019L850.988 1020.2L849.864 1019ZM347.356 1020.2L348.48 1021.4L347.356 1020.2ZM469.892 1020.2L471.016 1021.4L469.892 1020.2ZM539.591 1020.2L540.715 1021.4L539.591 1020.2ZM666.623 1020.2L667.747 1021.4L666.623 1020.2ZM739.694 1020.2L740.819 1021.4L739.694 1020.2ZM852.112 1020.2L853.237 1021.4L852.112 1020.2ZM345.108 1021.4L346.232 1022.61L345.108 1021.4ZM472.14 1021.4L473.264 1022.61L472.14 1021.4ZM537.342 1021.4L538.466 1022.61L537.342 1021.4ZM629.525 1021.4L630.649 1022.61L629.525 1021.4ZM669.621 1021.8L670.37 1022.21L669.621 1021.8ZM737.446 1021.4L738.57 1022.61L737.446 1021.4ZM854.361 1021.4L855.485 1022.61L854.361 1021.4ZM342.859 1022.61L343.984 1023.81L342.859 1022.61ZM474.388 1022.61L475.512 1023.81L474.388 1022.61ZM534.72 1023L535.468 1023.41L534.72 1023ZM672.244 1022.61L673.368 1023.81L672.244 1022.61ZM735.198 1022.61L736.322 1023.81L735.198 1022.61ZM855.485 1022.61L856.609 1023.81L855.485 1022.61Z" fill="#ACD049"/>
<path d="M341.737 1023.81L342.861 1025.01L341.737 1023.81ZM477.389 1024.21L478.137 1024.62L477.389 1024.21ZM531.723 1023.81L532.848 1025.01L531.723 1023.81ZM675.244 1024.21L675.993 1024.62L675.244 1024.21ZM732.577 1024.21L733.326 1024.62L732.577 1024.21ZM857.735 1023.81L858.859 1025.01L857.735 1023.81ZM339.489 1025.01L340.613 1026.22L339.489 1025.01ZM480.761 1025.41L481.51 1025.82L480.761 1025.41ZM528.351 1025.01L529.475 1026.22L528.351 1025.01ZM600.298 1025.01L601.423 1026.22L600.298 1025.01ZM628.403 1025.01L629.527 1026.22L628.403 1025.01ZM678.617 1025.41L679.365 1025.82L678.617 1025.41ZM729.579 1025.01L730.703 1026.22L729.579 1025.01ZM858.859 1025.01L859.984 1026.22L858.859 1025.01ZM337.241 1026.22L338.365 1027.42L337.241 1026.22ZM484.134 1026.61L484.882 1027.02L484.134 1026.61ZM524.604 1026.61L525.353 1027.02L524.604 1026.61ZM683.113 1026.61L683.862 1027.02L683.113 1026.61ZM725.832 1026.61L726.581 1027.02L725.832 1026.61ZM334.992 1027.42L336.116 1028.62L334.992 1027.42ZM487.88 1027.42V1028.62H491.253L487.88 1027.42ZM518.233 1027.42V1028.62H521.606L518.233 1027.42ZM686.86 1027.42V1028.62H690.233L686.86 1027.42ZM719.461 1027.42V1028.62H722.834L719.461 1027.42ZM862.232 1027.42L863.356 1028.62L862.232 1027.42ZM494.626 1028.62V1029.83H501.371L494.626 1028.62ZM508.116 1028.62V1029.83H514.861L508.116 1028.62ZM693.605 1028.62V1029.83H701.474L693.605 1028.62ZM709.344 1028.62V1029.83H716.089L709.344 1028.62ZM863.356 1028.62L864.48 1029.83L863.356 1028.62ZM599.174 1031.03L600.298 1032.23L599.174 1031.03ZM626.154 1031.03L627.279 1032.23L626.154 1031.03ZM598.05 1037.04L599.174 1038.25L598.05 1037.04ZM623.906 1037.04L625.03 1038.25L623.906 1037.04ZM596.926 1043.06L598.05 1044.26L596.926 1043.06ZM621.658 1043.06L622.782 1044.26L621.658 1043.06Z" fill="#ACD049"/>
<path d="M595.8 1049.07L596.924 1050.28L595.8 1049.07ZM619.408 1049.07L620.532 1050.28L619.408 1049.07ZM595.05 1055.9L595.426 1056.69L595.05 1055.9ZM617.16 1055.09L618.284 1056.29L617.16 1055.09ZM593.926 1061.91L594.302 1062.71L593.926 1061.91ZM614.911 1061.1L616.035 1062.31L614.911 1061.1ZM592.802 1067.93L593.177 1068.72L592.802 1067.93ZM612.663 1067.12L613.787 1068.32L612.663 1067.12ZM591.678 1073.94L592.053 1074.74L591.678 1073.94ZM610.415 1073.14L611.539 1074.34L610.415 1073.14ZM590.554 1079.96L590.929 1080.75L590.554 1079.96ZM608.166 1079.15L609.29 1080.35L608.166 1079.15ZM589.429 1085.97L589.805 1086.77L589.429 1085.97ZM605.918 1085.17L607.042 1086.37L605.918 1085.17ZM588.305 1091.99L588.681 1092.78L588.305 1091.99ZM603.669 1091.18L604.794 1092.38L603.669 1091.18ZM587.181 1098L587.557 1098.8L587.181 1098ZM601.421 1097.2L602.545 1098.4L601.421 1097.2ZM586.057 1104.02L586.432 1104.81L586.057 1104.02ZM599.173 1103.21L600.297 1104.41L599.173 1103.21ZM584.933 1110.03L585.308 1110.83L584.933 1110.03ZM596.924 1109.23L598.049 1110.43L596.924 1109.23ZM583.809 1116.05L584.184 1116.84L583.809 1116.05ZM594.676 1115.24L595.8 1116.45L594.676 1115.24ZM592.428 1121.26L593.552 1122.46L592.428 1121.26ZM582.31 1122.46L583.434 1123.66L582.31 1122.46ZM590.179 1127.27L591.303 1128.48L590.179 1127.27ZM581.186 1128.48L582.31 1129.68L581.186 1128.48ZM587.931 1133.29L589.055 1134.49L587.931 1133.29ZM580.062 1134.49L581.186 1135.69L580.062 1134.49ZM585.683 1139.3L586.807 1140.51L585.683 1139.3ZM578.938 1140.51L580.062 1141.71L578.938 1140.51Z" fill="#ACD049"/>
<path fill-rule="evenodd" clip-rule="evenodd" d="M1257.94 925.161V1272.84H1290.54V972.08H1291.67L1308.53 1000.95L1339.64 1051.48L1434.44 1205.47L1464.04 1253.59L1477.36 1272.12L1513.13 1272.84V925.161H1481.65V1227.13C1473.75 1214.58 1465.82 1202.04 1457.88 1189.49L1457.86 1189.47L1457.86 1189.47L1457.86 1189.46L1457.86 1189.46L1457.85 1189.44L1457.84 1189.44C1419.94 1129.51 1381.92 1069.39 1346.1 1008.17C1337.87 994.094 1329.18 980.297 1320.5 966.512L1320.5 966.512C1317.13 961.153 1313.75 955.796 1310.41 950.425C1309.2 948.482 1307.92 946.017 1306.56 943.391C1303.2 936.893 1299.32 929.407 1294.67 926.4C1288.83 922.614 1277 923.677 1267.39 924.54C1263.78 924.865 1260.49 925.161 1257.94 925.161ZM3439.97 925.161V1272.84H3471.45V1120.05C3480.47 1120.05 3489.83 1120.32 3499.39 1120.59C3543.89 1121.86 3592.51 1123.25 3629.96 1098.32C3675.78 1067.82 3680.63 977.205 3634.46 943.832C3608.61 925.147 3578.33 925.154 3548.44 925.16L3546.77 925.161H3439.97ZM2567.61 952.831V1022.61H2533.88V1047.87H2567.61V1186.22C2567.61 1191.88 2567.35 1197.88 2567.08 1204.03V1204.03V1204.03V1204.03V1204.03V1204.04C2566.31 1221.67 2565.48 1240.5 2570.64 1256C2578.2 1278.69 2601.99 1282.28 2621.57 1278.76C2622.52 1278.59 2623.71 1278.44 2625.03 1278.28C2630.13 1277.66 2637.15 1276.8 2639.52 1273.37C2642.14 1269.59 2641.5 1261.24 2641.01 1254.68V1254.68L2641.01 1254.67C2640.84 1252.41 2640.68 1250.36 2640.68 1248.78C2629.04 1252 2608.49 1257.6 2599.87 1245.05C2593.13 1235.22 2594.25 1217.06 2595.17 1202.29L2595.17 1202.28C2595.45 1197.69 2595.71 1193.42 2595.71 1189.83V1047.87H2639.56V1022.61H2595.71V952.831H2567.61ZM3471.45 1089.98V954.034H3543.4C3564.66 954.034 3587.09 954.19 3606.35 965.246C3643.54 986.6 3644.1 1055.73 3607.48 1078.09C3588.72 1089.54 3565.47 1089.98 3544.52 1089.98H3471.45ZM1848.14 1193.44H1820.03C1820.04 1261.35 1880.33 1286.29 1934.7 1277.98C1963.16 1273.62 1993.3 1258.83 2002.1 1227.13C2004.17 1219.64 2004.41 1212 2004.4 1204.27C2004.32 1154.12 1959.45 1142.3 1921.15 1132.21L1921.15 1132.21L1921.15 1132.2C1914.51 1130.46 1908.07 1128.76 1902.1 1126.92C1883.2 1121.11 1858.53 1113.04 1855.22 1088.77C1851.24 1059.61 1880.02 1043.1 1903.22 1043.06C1937.13 1043 1962.68 1056.89 1969.55 1094.79H1998.78C1998.54 1093.75 1998.3 1092.71 1998.06 1091.67C1992.82 1068.75 1987.85 1046.98 1968.42 1032.28C1926.94 1000.92 1835.43 1008.34 1825.99 1073.14C1824.79 1081.4 1824.55 1088.92 1825.47 1097.2C1830.47 1141.71 1870.43 1150.72 1905.68 1158.68C1911.82 1160.06 1917.81 1161.42 1923.46 1162.92C1942.24 1167.91 1969.7 1175.23 1973.67 1199.46C1979.46 1234.78 1945.5 1252.39 1917.83 1252.39C1881.15 1252.39 1855.74 1232.72 1848.14 1193.44ZM2056.11 1098.4C2057.74 1098.4 2060 1098.6 2062.55 1098.84C2069.9 1099.5 2079.63 1100.39 2083.38 1097.16C2085.88 1095.02 2087.13 1088.99 2088.27 1083.54C2088.92 1080.39 2089.54 1077.44 2090.33 1075.54C2095.32 1063.54 2104.62 1054.79 2115.69 1049.45C2136.75 1039.29 2171.49 1038.57 2191.01 1052.95C2205.91 1063.93 2218.01 1096.74 2203.87 1113.64C2196.25 1122.76 2181.28 1124.31 2168.95 1125.6C2165.99 1125.9 2163.18 1126.2 2160.66 1126.57C2156.11 1127.26 2151.29 1127.89 2146.29 1128.54C2108.59 1133.44 2061.06 1139.61 2048.27 1182.61C2032.6 1235.32 2068.52 1276.41 2116.81 1279.95C2152.26 1282.55 2185.39 1266.81 2210.12 1240.36C2210.31 1265.41 2222.21 1276.49 2244.97 1276.45L2245.48 1276.45C2251.19 1276.44 2261.63 1276.43 2265.17 1271.02C2267.57 1267.37 2267.04 1260.05 2266.61 1254.15C2266.47 1252.12 2266.33 1250.27 2266.33 1248.78C2264.23 1248.96 2261.94 1249.6 2259.61 1250.24L2259.61 1250.24C2255.36 1251.42 2250.96 1252.64 2247.22 1251.27C2235.54 1247 2236.36 1226.78 2236.91 1213.34C2237.01 1210.83 2237.1 1208.56 2237.1 1206.67V1102.01C2237.1 1079.15 2236.67 1055.53 2220.19 1038.36C2203.3 1020.74 2177.81 1015.39 2155.04 1015.39C2106.84 1015.39 2056.14 1039.13 2056.11 1098.4ZM2334.91 1055.09V1022.61H2306.8V1272.84H2334.91V1156.15C2334.91 1154.4 2334.9 1152.64 2334.9 1150.86V1150.86C2334.83 1127.64 2334.76 1102.13 2345.52 1081.56C2365.31 1043.68 2427.5 1023.38 2454.7 1064.71C2466.07 1081.99 2465.73 1103.99 2465.41 1124.58C2465.36 1127.93 2465.31 1131.24 2465.31 1134.49V1272.84H2493.41V1138.1C2493.41 1132.78 2493.58 1127.28 2493.75 1121.7L2493.75 1121.69C2494.33 1102.88 2494.93 1083.1 2489.25 1065.92C2474.44 1021.13 2420.2 1005.27 2381 1020.03C2362.95 1026.84 2348.22 1040.85 2334.91 1055.09ZM2682.28 1098.4H2711.51C2713.35 1053.27 2756.37 1038.04 2792.45 1043.58C2816.93 1047.33 2838.95 1067.18 2835.96 1095.99C2833.38 1120.85 2812.67 1123.38 2793.29 1125.74C2791.49 1125.96 2789.71 1126.17 2787.95 1126.41C2784.02 1126.93 2779.92 1127.42 2775.72 1127.92L2775.72 1127.92L2775.71 1127.92L2775.71 1127.92C2741.09 1132.04 2698.98 1137.05 2679.95 1170.58C2654.96 1214.61 2682.18 1266.46 2726.12 1277.36C2766.66 1287.43 2807.59 1271.07 2836.29 1240.36C2836.96 1249.55 2837.96 1260.51 2843.66 1267.91C2854.1 1281.45 2875.85 1276.57 2890.17 1273.36C2890.56 1273.27 2890.93 1273.19 2891.31 1273.11C2891.71 1273.02 2892.11 1272.93 2892.5 1272.84V1248.78C2890.37 1248.98 2888.14 1249.61 2885.87 1250.25C2882.03 1251.34 2878.11 1252.44 2874.51 1251.5C2862.13 1248.23 2863.31 1227.05 2864.09 1213.07C2864.25 1210.14 2864.39 1207.54 2864.39 1205.47V1104.41C2864.39 1080.92 2863.12 1055.79 2846.4 1038.3C2829.84 1020.98 2804.73 1015.39 2782.33 1015.39C2733.46 1015.39 2683.42 1038.56 2682.28 1098.4ZM2964.45 1067.12H2963.32V1022.61H2935.22V1272.84H2963.32V1227.13V1192.24C2963.32 1187.97 2963.27 1183.52 2963.23 1178.93L2963.23 1178.91C2962.72 1130.6 2962.06 1067.34 3013.91 1051.67C3022.76 1048.99 3031.72 1047.87 3040.89 1047.87V1015.39C3009.2 1015.39 2970.93 1028.21 2964.45 1067.12ZM3082.48 1098.4H3111.71C3116.57 1058.18 3145.45 1043.06 3180.29 1043.06C3211.71 1043.06 3241.71 1062.86 3236 1100.81C3232.93 1121.19 3212.02 1123.67 3195.32 1125.65C3193.22 1125.9 3191.2 1126.14 3189.28 1126.41C3184.78 1127.03 3180.07 1127.6 3175.24 1128.18C3140.73 1132.33 3099.7 1137.27 3080.75 1170.58C3056.73 1212.81 3081.3 1265.08 3124.08 1276.57C3165.54 1287.72 3207.83 1271.97 3237.62 1240.36C3237.72 1277.69 3265.02 1279.64 3292.71 1272.84V1248.78C3290.95 1249.03 3289.06 1249.56 3287.11 1250.1C3282.91 1251.26 3278.48 1252.48 3274.72 1251.21C3262.69 1247.14 3263.69 1226.5 3264.35 1212.72L3264.35 1212.71L3264.35 1212.68C3264.48 1209.95 3264.6 1207.48 3264.6 1205.47V1106.82C3264.6 1106.11 3264.6 1105.4 3264.6 1104.69V1104.69V1104.68C3264.62 1082.57 3264.63 1059.93 3250.58 1041.87C3241.61 1030.33 3228.26 1024.03 3215.14 1019.86C3180.14 1008.75 3129.53 1013.93 3103.05 1043.26C3089.41 1058.36 3086.27 1076.49 3082.89 1096.03L3082.88 1096.11L3082.73 1097C3082.65 1097.47 3082.57 1097.93 3082.48 1098.4ZM3791.84 1015.91C3772.34 1018.75 3753.17 1024.6 3737.88 1038.61C3686.97 1085.24 3682.11 1191.05 3726.83 1243.97C3751.65 1273.33 3789.88 1283.66 3825.57 1278.51C3922.75 1264.5 3943.14 1109.53 3880.32 1043.58C3857.74 1019.85 3822.72 1011.39 3791.84 1015.91ZM4486.58 1194.64C4484.66 1194.64 4482.03 1194.4 4479.09 1194.13C4470.85 1193.38 4460.15 1192.41 4455.74 1195.88C4452.89 1198.13 4451.06 1203.86 4449.36 1209.18C4448.34 1212.39 4447.37 1215.45 4446.25 1217.5C4439.81 1229.31 4428.47 1239.63 4416.88 1245.29C4356.72 1274.67 4306.75 1217.28 4306.71 1154.94H4487.71C4487.71 1111.33 4480.19 1063.94 4446.11 1035.26C4410.43 1005.22 4350.32 1008.88 4316.83 1040.86C4293.73 1062.92 4280.61 1095.8 4277.68 1128.48C4273.89 1170.74 4279.75 1223.22 4311.22 1253.24C4343.94 1284.45 4404.16 1290.47 4441.62 1265.35C4464.13 1250.25 4480.64 1222.16 4486.58 1194.64ZM4569.77 1068.32H4568.65V1022.61H4540.54V1272.84H4568.65V1227.13C4568.65 1218.99 4568.36 1210.05 4568.05 1200.63V1200.62V1200.62V1200.61C4566.22 1144.01 4563.83 1070.24 4620.36 1051.52C4628.77 1048.73 4637.46 1047.87 4646.22 1047.87V1015.39C4614.04 1015.39 4576.28 1029.28 4569.77 1068.32ZM1580.58 1150.13V1022.61H1608.69V1160.96C1608.69 1163.72 1608.66 1166.51 1608.63 1169.33C1608.41 1191 1608.18 1213.89 1620.78 1231.94C1648.13 1271.1 1706.72 1251.39 1726.24 1215.09C1739.14 1191.11 1739.12 1163.57 1739.09 1136.75V1136.75C1739.09 1135.59 1739.09 1134.44 1739.09 1133.29V1022.61H1767.19V1272.84H1739.09V1240.36C1738.31 1241.19 1737.53 1242.03 1736.75 1242.87C1726.12 1254.29 1714.77 1266.49 1700.87 1272.99C1660.72 1291.77 1602.9 1277.48 1586.99 1230.73C1579.76 1209.51 1580.1 1186.66 1580.44 1164.21V1164.21C1580.51 1159.49 1580.58 1154.79 1580.58 1150.13ZM3950.71 1070.96C3945.52 1055 3940.2 1038.66 3937.98 1022.61L3965.3 1023.85L3971.06 1039.45L3982.3 1079.15L4011.37 1181.41L4026.79 1231.94L4040.94 1172.99L4064.36 1080.35L4078.51 1022.61H4111.11L4147.5 1172.99L4160.57 1229.53H4161.7C4168.9 1205.84 4175.68 1181.99 4182.45 1158.14C4189.96 1131.74 4197.46 1105.34 4205.54 1079.15C4208.24 1070.4 4210.76 1061.56 4213.28 1052.73L4213.28 1052.73L4213.29 1052.71L4213.31 1052.64C4214.45 1048.64 4215.59 1044.64 4216.75 1040.65C4217.12 1039.35 4217.45 1037.85 4217.79 1036.27C4218.71 1032.02 4219.74 1027.24 4222.22 1024.53C4225.83 1020.61 4236.55 1021.54 4244.32 1022.21C4246.79 1022.42 4248.95 1022.61 4250.51 1022.61C4248.49 1037.22 4243.4 1051.91 4238.41 1066.32L4238.41 1066.32C4236.07 1073.08 4233.75 1079.77 4231.78 1086.37L4229.49 1094.03L4227.4 1101.06C4217.25 1135.11 4207.1 1169.17 4196.54 1203.06C4194.08 1210.99 4191.7 1218.93 4189.31 1226.88L4189.31 1226.9C4186.88 1235 4184.45 1243.11 4181.93 1251.19C4181.44 1252.77 4180.99 1254.7 4180.51 1256.74L4180.51 1256.75L4180.51 1256.76C4179.31 1261.9 4177.94 1267.8 4175.26 1270.92C4171.72 1275.04 4159.75 1274 4151.33 1273.27C4148.69 1273.04 4146.4 1272.84 4144.83 1272.84L4108.44 1122.46L4095.37 1065.92H4093.12C4092.3 1076.66 4089.24 1087.49 4086.23 1098.14C4084.83 1103.09 4083.44 1107.99 4082.29 1112.84C4074.5 1145.76 4066.61 1178.8 4057.94 1211.49C4056.41 1217.27 4055.25 1224.07 4054.05 1231.12C4051.66 1245.08 4049.11 1260.04 4043.17 1270.05C4040.14 1275.17 4015.33 1274.69 4010.4 1272.12C4007.3 1270.49 4006.13 1265.13 4005.18 1260.81C4004.89 1259.45 4004.61 1258.2 4004.31 1257.2C3999.58 1241.69 3995.19 1225.96 3990.98 1210.28C3981.9 1176.51 3972.11 1142.88 3962.33 1109.3C3960.57 1103.26 3958.81 1097.22 3957.06 1091.18C3955.14 1084.55 3952.94 1077.8 3950.72 1070.98L3950.72 1070.97L3950.71 1070.96ZM3792.97 1043.59C3693.05 1060.29 3709.06 1268.53 3817.7 1251.87C3873.52 1243.32 3888.59 1180.06 3884.1 1128.48C3882.33 1107.98 3877.12 1085.68 3864.54 1069.53C3847.15 1047.17 3819.33 1039.19 3792.97 1043.59ZM4306.72 1129.68H4458.48C4457.9 1126.36 4457.38 1123.09 4456.87 1119.86L4456.86 1119.84C4453.56 1099.17 4450.57 1080.47 4435.8 1063.56C4412.62 1037.03 4364.68 1035.07 4339.32 1058.92C4319.29 1077.74 4311.49 1102.56 4306.72 1129.68ZM2195.49 1146.51C2199.94 1145.28 2204.42 1144.04 2208.99 1142.91C2208.99 1147.63 2209.15 1152.49 2209.32 1157.42C2209.88 1174.53 2210.47 1192.46 2204.47 1207.88C2188.27 1249.53 2117.4 1270.34 2085.52 1237.59C2058.68 1209.99 2083.22 1169.78 2112.31 1160.85C2124.06 1157.24 2136.21 1156.18 2148.34 1155.12C2153.96 1154.63 2159.58 1154.14 2165.15 1153.4C2175.7 1152 2185.53 1149.27 2195.49 1146.51ZM2822.03 1146.9C2826.75 1145.35 2831.46 1143.8 2836.28 1142.91C2836.28 1147.2 2836.4 1151.62 2836.53 1156.09C2836.98 1172.76 2837.45 1190.27 2831.87 1205.47C2815.91 1248.92 2742.52 1272.54 2710.49 1235.53C2696.07 1218.85 2699.1 1188.22 2714.97 1173.79C2727.34 1162.56 2744.14 1158.5 2759.84 1156.49C2765.91 1155.71 2771.99 1155.16 2778.08 1154.6C2788.14 1153.68 2798.2 1152.75 2808.18 1150.83C2812.89 1149.92 2817.47 1148.41 2822.03 1146.9ZM3223.08 1146.49C3227.51 1145.26 3231.96 1144.03 3236.49 1142.91C3236.49 1147.54 3236.66 1152.35 3236.83 1157.24C3237.4 1174 3238.01 1191.73 3232.13 1206.67C3215.73 1248.38 3145.73 1271.31 3112.93 1237.74C3087.02 1211.18 3108.75 1170.71 3137.56 1161.49C3150.07 1157.48 3162.91 1156.32 3175.78 1155.16C3181.4 1154.66 3187.03 1154.15 3192.65 1153.4C3203.16 1152 3213.07 1149.26 3223.08 1146.49Z" fill="#047DAF"/>
<path d="M583.435 1145.32L584.559 1146.52L583.435 1145.32ZM577.814 1146.52L578.938 1147.72L577.814 1146.52ZM582.31 1148.93L583.435 1150.13L582.31 1148.93ZM581.186 1151.33L582.31 1152.54L581.186 1151.33ZM576.69 1152.54L577.814 1153.74L576.69 1152.54ZM580.062 1154.94L581.186 1156.15L580.062 1154.94ZM578.938 1157.35L580.062 1158.55L578.938 1157.35ZM575.565 1158.55L576.69 1159.75L575.565 1158.55ZM577.814 1160.96L578.938 1162.16L577.814 1160.96ZM576.69 1163.36L577.814 1164.57L576.69 1163.36ZM574.441 1164.57L575.565 1165.77L574.441 1164.57ZM575.565 1166.97L576.69 1168.18L575.565 1166.97ZM574.441 1169.38L575.565 1170.58L574.441 1169.38ZM573.691 1171.39L574.067 1172.18L573.691 1171.39Z" fill="#ACD049"/>
</svg>
